<?xml version="1.0" encoding="UTF-8" standalone="no"?>
<!DOCTYPE svg PUBLIC "-//W3C//DTD SVG 1.1//EN" "http://www.w3.org/Graphics/SVG/1.1/DTD/svg11.dtd">
<svg xmlns="http://www.w3.org/2000/svg" xmlns:xlink="http://www.w3.org/1999/xlink" version="1.1" width="612pt" height="792pt" viewBox="0 0 612 792">
<g enable-background="new">
<text xml:space="preserve" transform="matrix(1 0 -0 1 0 792)" font-size="14.3462" font-family="OpenSans" font-weight="bold"><tspan y="-776.612" x="2.835">1</tspan></text>
<text xml:space="preserve" transform="matrix(1 0 -0 1 0 792)" font-size="14.3462" font-family="OpenSans" font-weight="bold"><tspan y="-776.612" x="25.372883 37.710618 46.590917 55.672063 67.78026 76.445369 85.69867 94.50723 104.00442 116.198688 128.4073 136.9146 144.87674 157.07102 165.95131 176.28058 184.17099 191.02848 200.10962 208.77472 220.88292 232.99112 241.65622 249.58968 259.91896 268.79927 282.84419 296.90345 307.2327 319.25483 326.62876 335.796 344.6763 355.00556 362.3795 370.31294 379.48017">&#x0424;&#x043e;&#x0440;&#x043c;&#x0430;&#x043b;&#x044c;&#x043d;&#x044b;&#x0435;&#x044f;&#x0437;&#x044b;&#x043a;&#x0438;,&#x0433;&#x0440;&#x0430;&#x043c;&#x043c;&#x0430;&#x0442;&#x0438;&#x043a;&#x0438;&#x0438;&#x0438;&#x0445;&#x0441;&#x0432;&#x043e;&#x0439;&#x0441;&#x0442;&#x0432;&#x0430;</tspan></text>
<text xml:space="preserve" transform="matrix(1 0 -0 1 0 792)" font-size="9.9626" font-family="OpenSans"><tspan y="-750.391" x="14.412 20.110608">1.</tspan></text>
<text xml:space="preserve" transform="matrix(1 0 -0 1 0 792)" font-size="9.9626" font-family="OpenSans"><tspan y="-750.391" x="27.741959 34.546415 40.08562 46.40191 54.53139 58.795385 64.90246 70.441669 77.764179 85.086688 90.62589 95.27843 101.59472 106.76531 112.30452 117.54485 124.80759 130.825 135.5672 140.21973 146.3268 152.34421 158.66049 163.31302 171.48235 177.15106 184.82227 190.49098 196.50839 204.79727 209.6092 215.1484 220.84702 226.38622 232.7025 239.01879 245.0362 253.94275 260.17936 265.76838 271.95515 277.97257 284.02983 289.2004 295.5167">&#x0414;&#x0430;&#x043d;&#x0430;&#x0433;&#x0440;&#x0430;&#x043c;&#x043c;&#x0430;&#x0442;&#x0438;&#x043a;&#x0430;.&#x041f;&#x043e;&#x0441;&#x0442;&#x0440;&#x043e;&#x0439;&#x0442;&#x0435;&#x0432;&#x044b;&#x0432;&#x043e;&#x0434;&#x0437;&#x0430;&#x0434;&#x0430;&#x043d;&#x043d;&#x043e;&#x0439;&#x0446;&#x0435;&#x043f;&#x043e;&#x0447;&#x043a;&#x0438;.</tspan></text>
<text xml:space="preserve" transform="matrix(1 0 -0 1 0 792)" font-size="9.9626" font-family="OpenSans"><tspan y="-728.359" x="33.241 36.18993 41.729139">(a)</tspan></text>
<text xml:space="preserve" transform="matrix(1 0 -0 1 0 792)" font-size="9.9626" font-family="SFRM1000"><tspan y="-728.359" x="103.444">S</tspan></text>
<text xml:space="preserve" transform="matrix(1 0 -0 1 0 792)" font-size="9.9626" font-family="Pxsy"><tspan y="-728.359" x="112.297">&#x21d2;</tspan></text>
<text xml:space="preserve" transform="matrix(1 0 -0 1 0 792)" font-size="9.9626" font-family="SFRM1000"><tspan y="-728.359" x="125.167 135.67755 141.77468 152.28522 155.05483 162.80573 168.89289 177.73967 183.83679 194.34734">T|T&#x2019;+&#x2019;S|T&#x2019;</tspan></text>
<text xml:space="preserve" transform="matrix(1 0 -0 1 0 792)" font-size="9.9626" font-family="Rpcxr"><tspan y="-728.359" x="197.10199">&#x2212;</tspan></text>
<text xml:space="preserve" transform="matrix(1 0 -0 1 0 792)" font-size="9.9626" font-family="SFRM1000"><tspan y="-728.359" x="203.76699 209.85414 215.38338">&#x2019;S;</tspan><tspan y="-716.404" x="103.443988">T</tspan></text>
<text xml:space="preserve" transform="matrix(1 0 -0 1 0 792)" font-size="9.9626" font-family="Pxsy"><tspan y="-716.404" x="113.956989">&#x21d2;</tspan></text>
<text xml:space="preserve" transform="matrix(1 0 -0 1 0 792)" font-size="9.9626" font-family="SFRM1000"><tspan y="-716.404" x="126.82699 136.65012 142.74724 152.57038">F|F&#x2019;</tspan></text>
<text xml:space="preserve" transform="matrix(1 0 -0 1 0 792)" font-size="9.9626" font-family="URWPalladioL"><tspan y="-712.996" x="155.32399">*</tspan></text>
<text xml:space="preserve" transform="matrix(1 0 -0 1 0 792)" font-size="9.9626" font-family="SFRM1000"><tspan y="-716.404" x="159.19899 165.28615 172.47914">&#x2019;T;</tspan><tspan y="-704.448" x="103.443988">F</tspan></text>
<text xml:space="preserve" transform="matrix(1 0 -0 1 0 792)" font-size="9.9626" font-family="Pxsy"><tspan y="-704.448" x="113.26598">&#x21d2;</tspan></text>
<text xml:space="preserve" transform="matrix(1 0 -0 1 0 792)" font-size="9.9626" font-family="SFRM1000"><tspan y="-704.448" x="126.13499 128.90459 133.88588 139.97304 146.07016 148.83977 154.369 157.13861">&#x2019;a&#x2019;|&#x2019;b&#x2019;;</tspan></text>
<text xml:space="preserve" transform="matrix(1 0 -0 1 0 792)" font-size="9.9626" font-family="OpenSans"><tspan y="-686.401" x="49.65899 57.001428 62.590448 68.77722 74.79463 80.85189 86.022487 91.56169">&#x0426;&#x0435;&#x043f;&#x043e;&#x0447;&#x043a;&#x0430;:</tspan></text>
<text xml:space="preserve" transform="matrix(1 0 -0 1 0 792)" font-size="9.9626" font-family="SFRM1000"><tspan y="-686.401" x="96.80099">a</tspan></text>
<text xml:space="preserve" transform="matrix(1 0 -0 1 0 792)" font-size="9.9626" font-family="Rpcxr"><tspan y="-686.401" x="105.10099">&#x2212;</tspan></text>
<text xml:space="preserve" transform="matrix(1 0 -0 1 0 792)" font-size="9.9626" font-family="SFRM1000"><tspan y="-686.401" x="115.08599">b</tspan></text>
<text xml:space="preserve" transform="matrix(1 0 -0 1 0 792)" font-size="9.9626" font-family="URWPalladioL"><tspan y="-682.994" x="123.93999">*</tspan></text>
<text xml:space="preserve" transform="matrix(1 0 -0 1 0 792)" font-size="9.9626" font-family="SFRM1000"><tspan y="-686.401" x="131.135 139.43384 150.51226">a+b</tspan></text>
<text xml:space="preserve" transform="matrix(1 0 -0 1 0 792)" font-size="9.9626" font-family="OpenSans"><tspan y="-686.401" x="156.036">.</tspan></text>
<text xml:space="preserve" transform="matrix(1 0 -0 1 0 792)" font-size="9.9626" font-family="OpenSans" font-weight="bold"><tspan y="-663.628" x="49.658998 55.91551 61.803407 71.45717 77.34506 83.94031 91.11338 97.001277">&#x0420;&#x0435;&#x0448;&#x0435;&#x043d;&#x0438;&#x0435;:</tspan></text>
<text fill="#ff0000" xml:space="preserve" transform="matrix(1 0 -0 1 0 792)" font-size="9.9626" font-family="SFRM1000"><tspan y="-646.947" x="103.444">S</tspan></text>
<text xml:space="preserve" transform="matrix(1 0 -0 1 0 792)" font-size="9.9626" font-family="Pxsy"><tspan y="-646.947" x="112.297">&#x21d2;</tspan></text>
<text fill="#ff0000" xml:space="preserve" transform="matrix(1 0 -0 1 0 792)" font-size="9.9626" font-family="SFRM1000"><tspan y="-646.947" x="125.167">T</tspan></text>
<text xml:space="preserve" transform="matrix(1 0 -0 1 0 792)" font-size="9.9626" font-family="Rpcxr"><tspan y="-646.947" x="135.68">&#x2212;</tspan></text>
<text xml:space="preserve" transform="matrix(1 0 -0 1 0 792)" font-size="9.9626" font-family="SFRM1000"><tspan y="-646.947" x="145.665">S</tspan></text>
<text xml:space="preserve" transform="matrix(1 0 -0 1 0 792)" font-size="9.9626" font-family="Pxsy"><tspan y="-646.947" x="154.519">&#x21d2;</tspan></text>
<text xml:space="preserve" transform="matrix(1 0 -0 1 0 792)" font-size="9.9626" font-family="SFRM1000"><tspan y="-646.947" x="167.388">F</tspan></text>
<text xml:space="preserve" transform="matrix(1 0 -0 1 0 792)" font-size="9.9626" font-family="Rpcxr"><tspan y="-646.947" x="177.21">&#x2212;</tspan></text>
<text fill="#ff0000" xml:space="preserve" transform="matrix(1 0 -0 1 0 792)" font-size="9.9626" font-family="SFRM1000"><tspan y="-646.947" x="187.195">S</tspan></text>
<text xml:space="preserve" transform="matrix(1 0 -0 1 0 792)" font-size="9.9626" font-family="Pxsy"><tspan y="-646.947" x="196.04901">&#x21d2;</tspan></text>
<text fill="#ff0000" xml:space="preserve" transform="matrix(1 0 -0 1 0 792)" font-size="9.9626" font-family="SFRM1000"><tspan y="-646.947" x="208.91802">F</tspan></text>
<text xml:space="preserve" transform="matrix(1 0 -0 1 0 792)" font-size="9.9626" font-family="Rpcxr"><tspan y="-646.947" x="218.74002">&#x2212;</tspan></text>
<text xml:space="preserve" transform="matrix(1 0 -0 1 0 792)" font-size="9.9626" font-family="SFRM1000"><tspan y="-646.947" x="228.72502 239.23557 250.31398">T+S</tspan></text>
<text xml:space="preserve" transform="matrix(1 0 -0 1 0 792)" font-size="9.9626" font-family="Pxsy"><tspan y="-646.947" x="259.15904">&#x21d2;</tspan></text>
<text xml:space="preserve" transform="matrix(1 0 -0 1 0 792)" font-size="9.9626" font-family="SFRM1000"><tspan y="-634.992" x="121.372028">a</tspan></text>
<text xml:space="preserve" transform="matrix(1 0 -0 1 0 792)" font-size="9.9626" font-family="Rpcxr"><tspan y="-634.992" x="129.67203">&#x2212;</tspan></text>
<text fill="#ff0000" xml:space="preserve" transform="matrix(1 0 -0 1 0 792)" font-size="9.9626" font-family="SFRM1000"><tspan y="-634.992" x="139.65703">T</tspan></text>
<text xml:space="preserve" transform="matrix(1 0 -0 1 0 792)" font-size="9.9626" font-family="SFRM1000"><tspan y="-634.992" x="150.16757 161.24599">+S</tspan></text>
<text xml:space="preserve" transform="matrix(1 0 -0 1 0 792)" font-size="9.9626" font-family="Pxsy"><tspan y="-634.992" x="170.09104">&#x21d2;</tspan></text>
<text xml:space="preserve" transform="matrix(1 0 -0 1 0 792)" font-size="9.9626" font-family="SFRM1000"><tspan y="-634.992" x="182.96103">a</tspan></text>
<text xml:space="preserve" transform="matrix(1 0 -0 1 0 792)" font-size="9.9626" font-family="Rpcxr"><tspan y="-634.992" x="191.26103">&#x2212;</tspan></text>
<text xml:space="preserve" transform="matrix(1 0 -0 1 0 792)" font-size="9.9626" font-family="SFRM1000"><tspan y="-634.992" x="201.24604">F</tspan></text>
<text xml:space="preserve" transform="matrix(1 0 -0 1 0 792)" font-size="9.9626" font-family="URWPalladioL"><tspan y="-631.585" x="211.06804">*</tspan></text>
<text xml:space="preserve" transform="matrix(1 0 -0 1 0 792)" font-size="9.9626" font-family="SFRM1000"><tspan y="-634.992" x="218.26305 228.77359">T+</tspan></text>
<text fill="#ff0000" xml:space="preserve" transform="matrix(1 0 -0 1 0 792)" font-size="9.9626" font-family="SFRM1000"><tspan y="-634.992" x="239.852">S</tspan></text>
<text xml:space="preserve" transform="matrix(1 0 -0 1 0 792)" font-size="9.9626" font-family="Pxsy"><tspan y="-634.992" x="248.69705">&#x21d2;</tspan><tspan y="-623.037" x="139.30005">&#x21d2;</tspan></text>
<text xml:space="preserve" transform="matrix(1 0 -0 1 0 792)" font-size="9.9626" font-family="SFRM1000"><tspan y="-623.037" x="152.17005">a</tspan></text>
<text xml:space="preserve" transform="matrix(1 0 -0 1 0 792)" font-size="9.9626" font-family="Rpcxr"><tspan y="-623.037" x="160.47005">&#x2212;</tspan></text>
<text fill="#ff0000" xml:space="preserve" transform="matrix(1 0 -0 1 0 792)" font-size="9.9626" font-family="SFRM1000"><tspan y="-623.037" x="170.45505">F</tspan></text>
<text xml:space="preserve" transform="matrix(1 0 -0 1 0 792)" font-size="9.9626" font-family="URWPalladioL"><tspan y="-619.63" x="180.27706">*</tspan></text>
<text fill="#ff0000" xml:space="preserve" transform="matrix(1 0 -0 1 0 792)" font-size="9.9626" font-family="SFRM1000"><tspan y="-623.037" x="187.47206">T</tspan></text>
<text xml:space="preserve" transform="matrix(1 0 -0 1 0 792)" font-size="9.9626" font-family="SFRM1000"><tspan y="-623.037" x="197.9826">+</tspan></text>
<text fill="#ff0000" xml:space="preserve" transform="matrix(1 0 -0 1 0 792)" font-size="9.9626" font-family="SFRM1000"><tspan y="-623.037" x="209.06102">T</tspan></text>
<text xml:space="preserve" transform="matrix(1 0 -0 1 0 792)" font-size="9.9626" font-family="Pxsy"><tspan y="-623.037" x="219.56607">&#x21d2;</tspan></text>
<text xml:space="preserve" transform="matrix(1 0 -0 1 0 792)" font-size="9.9626" font-family="SFRM1000"><tspan y="-623.037" x="232.43607">a</tspan></text>
<text xml:space="preserve" transform="matrix(1 0 -0 1 0 792)" font-size="9.9626" font-family="Rpcxr"><tspan y="-623.037" x="240.73607">&#x2212;</tspan></text>
<text xml:space="preserve" transform="matrix(1 0 -0 1 0 792)" font-size="9.9626" font-family="SFRM1000"><tspan y="-623.037" x="250.72107">b</tspan></text>
<text xml:space="preserve" transform="matrix(1 0 -0 1 0 792)" font-size="9.9626" font-family="URWPalladioL"><tspan y="-619.63" x="259.57508">*</tspan></text>
<text fill="#ff0000" xml:space="preserve" transform="matrix(1 0 -0 1 0 792)" font-size="9.9626" font-family="SFRM1000"><tspan y="-623.037" x="266.77009">F</tspan></text>
<text xml:space="preserve" transform="matrix(1 0 -0 1 0 792)" font-size="9.9626" font-family="SFRM1000"><tspan y="-623.037" x="276.5932">+</tspan></text>
<text fill="#ff0000" xml:space="preserve" transform="matrix(1 0 -0 1 0 792)" font-size="9.9626" font-family="SFRM1000"><tspan y="-623.037" x="287.67164">F</tspan></text>
<text xml:space="preserve" transform="matrix(1 0 -0 1 0 792)" font-size="9.9626" font-family="Pxsy"><tspan y="-623.037" x="297.48109">&#x21d2;</tspan><tspan y="-611.082" x="175.15708">&#x21d2;</tspan></text>
<text xml:space="preserve" transform="matrix(1 0 -0 1 0 792)" font-size="9.9626" font-family="SFRM1000"><tspan y="-611.082" x="188.02608">a</tspan></text>
<text xml:space="preserve" transform="matrix(1 0 -0 1 0 792)" font-size="9.9626" font-family="Rpcxr"><tspan y="-611.082" x="196.32707">&#x2212;</tspan></text>
<text xml:space="preserve" transform="matrix(1 0 -0 1 0 792)" font-size="9.9626" font-family="SFRM1000"><tspan y="-611.082" x="206.31208">b</tspan></text>
<text xml:space="preserve" transform="matrix(1 0 -0 1 0 792)" font-size="9.9626" font-family="URWPalladioL"><tspan y="-607.675" x="215.16507">*</tspan></text>
<text xml:space="preserve" transform="matrix(1 0 -0 1 0 792)" font-size="9.9626" font-family="SFRM1000"><tspan y="-611.082" x="222.36107 230.65991 241.72837">a+b</tspan></text>
<text xml:space="preserve" transform="matrix(1 0 -0 1 0 792)" font-size="9.9626" font-family="OpenSans"><tspan y="-588.30899" x="32.677064 35.62599 41.733068">(b)</tspan></text>
<text xml:space="preserve" transform="matrix(1 0 -0 1 0 792)" font-size="9.9626" font-family="SFRM1000"><tspan y="-588.30899" x="103.44406">S</tspan></text>
<text xml:space="preserve" transform="matrix(1 0 -0 1 0 792)" font-size="9.9626" font-family="Pxsy"><tspan y="-588.30899" x="112.29706">&#x21d2;</tspan></text>
<text xml:space="preserve" transform="matrix(1 0 -0 1 0 792)" font-size="9.9626" font-family="SFRM1000"><tspan y="-588.30899" x="125.16706 127.93666 132.91796 139.00511 147.86186 158.23294 168.74349 174.83065 177.60025 182.58155 188.11078 194.2079 201.4009">&#x2019;a&#x2019;SBC|&#x2019;ab&#x2019;C;</tspan><tspan y="-576.35397" x="103.44406 113.954608">CB</tspan></text>
<text xml:space="preserve" transform="matrix(1 0 -0 1 0 792)" font-size="9.9626" font-family="Pxsy"><tspan y="-576.35397" x="124.33306">&#x21d2;</tspan></text>
<text xml:space="preserve" transform="matrix(1 0 -0 1 0 792)" font-size="9.9626" font-family="SFRM1000"><tspan y="-576.35397" x="137.20206 147.57314 154.76613">BC;</tspan><tspan y="-564.3989" x="103.44406 106.21366 111.742908 117.83005">&#x2019;b&#x2019;B</tspan></text>
<text xml:space="preserve" transform="matrix(1 0 -0 1 0 792)" font-size="9.9626" font-family="Pxsy"><tspan y="-564.3989" x="128.20606">&#x21d2;</tspan></text>
<text xml:space="preserve" transform="matrix(1 0 -0 1 0 792)" font-size="9.9626" font-family="SFRM1000"><tspan y="-564.3989" x="141.07605 143.84566 149.3749 154.90413 157.67374">&#x2019;bb&#x2019;;</tspan><tspan y="-552.44296" x="103.444049 106.213649 111.74289 117.83003">&#x2019;b&#x2019;C</tspan></text>
<text xml:space="preserve" transform="matrix(1 0 -0 1 0 792)" font-size="9.9626" font-family="Pxsy"><tspan y="-552.44296" x="128.34404">&#x21d2;</tspan></text>
<text xml:space="preserve" transform="matrix(1 0 -0 1 0 792)" font-size="9.9626" font-family="SFRM1000"><tspan y="-552.44296" x="141.21404 143.98365 149.79183 154.21523 156.98484">&#x2019;bc&#x2019;;</tspan><tspan y="-540.4879" x="103.44403 106.21363 110.637027 116.72417">&#x2019;c&#x2019;C</tspan></text>
<text xml:space="preserve" transform="matrix(1 0 -0 1 0 792)" font-size="9.9626" font-family="Pxsy"><tspan y="-540.4879" x="127.23803">&#x21d2;</tspan></text>
<text xml:space="preserve" transform="matrix(1 0 -0 1 0 792)" font-size="9.9626" font-family="SFRM1000"><tspan y="-540.4879" x="140.10703 142.87664 147.30004 151.72344 154.49304">&#x2019;cc&#x2019;;</tspan></text>
<text xml:space="preserve" transform="matrix(1 0 -0 1 0 792)" font-size="9.9626" font-family="OpenSans"><tspan y="-522.4409" x="49.659029 57.001466 62.590486 68.77726 74.79467 80.85193 86.02252 91.56173">&#x0426;&#x0435;&#x043f;&#x043e;&#x0447;&#x043a;&#x0430;:</tspan></text>
<text xml:space="preserve" transform="matrix(1 0 -0 1 0 792)" font-size="9.9626" font-family="SFRM1000"><tspan y="-522.4409" x="96.801029 101.782329 106.763629 111.74493 117.27417 122.80341 128.6116 133.035 137.4584">aaabbbccc</tspan></text>
<text xml:space="preserve" transform="matrix(1 0 -0 1 0 792)" font-size="9.9626" font-family="OpenSans"><tspan y="-522.4409" x="141.89902">.</tspan></text>
<text xml:space="preserve" transform="matrix(1 0 -0 1 0 792)" font-size="9.9626" font-family="OpenSans" font-weight="bold"><tspan y="-499.6679" x="49.65902 55.91553 61.80343 71.45719 77.345088 83.94032 91.113399 97.00129">&#x0420;&#x0435;&#x0448;&#x0435;&#x043d;&#x0438;&#x0435;:</tspan></text>
<text fill="#ff0000" xml:space="preserve" transform="matrix(1 0 -0 1 0 792)" font-size="9.9626" font-family="SFRM1000"><tspan y="-482.9869" x="103.444019">S</tspan></text>
<text xml:space="preserve" transform="matrix(1 0 -0 1 0 792)" font-size="9.9626" font-family="Pxsy"><tspan y="-482.9869" x="112.29701">&#x21d2;</tspan></text>
<text xml:space="preserve" transform="matrix(1 0 -0 1 0 792)" font-size="9.9626" font-family="SFRM1000"><tspan y="-482.9869" x="125.167018">a</tspan></text>
<text fill="#ff0000" xml:space="preserve" transform="matrix(1 0 -0 1 0 792)" font-size="9.9626" font-family="SFRM1000"><tspan y="-482.9869" x="133.46587">S</tspan></text>
<text xml:space="preserve" transform="matrix(1 0 -0 1 0 792)" font-size="9.9626" font-family="SFRM1000"><tspan y="-482.9869" x="142.32262 152.6937">BC</tspan></text>
<text xml:space="preserve" transform="matrix(1 0 -0 1 0 792)" font-size="9.9626" font-family="Pxsy"><tspan y="-482.9869" x="163.20902">&#x21d2;</tspan></text>
<text xml:space="preserve" transform="matrix(1 0 -0 1 0 792)" font-size="9.9626" font-family="SFRM1000"><tspan y="-482.9869" x="176.07901 181.0603">aa</tspan></text>
<text fill="#ff0000" xml:space="preserve" transform="matrix(1 0 -0 1 0 792)" font-size="9.9626" font-family="SFRM1000"><tspan y="-482.9869" x="189.35915">S</tspan></text>
<text xml:space="preserve" transform="matrix(1 0 -0 1 0 792)" font-size="9.9626" font-family="SFRM1000"><tspan y="-482.9869" x="198.20594 208.58698 219.09752 229.4686">BCBC</tspan></text>
<text xml:space="preserve" transform="matrix(1 0 -0 1 0 792)" font-size="9.9626" font-family="Pxsy"><tspan y="-482.9869" x="239.99">&#x21d2;</tspan></text>
<text xml:space="preserve" transform="matrix(1 0 -0 1 0 792)" font-size="9.9626" font-family="SFRM1000"><tspan y="-482.9869" x="252.86 257.8413 262.8226 267.8039">aaab</tspan></text>
<text fill="#ff0000" xml:space="preserve" transform="matrix(1 0 -0 1 0 792)" font-size="9.9626" font-family="SFRM1000"><tspan y="-482.9869" x="276.65068 287.1612">CB</tspan></text>
<text xml:space="preserve" transform="matrix(1 0 -0 1 0 792)" font-size="9.9626" font-family="SFRM1000"><tspan y="-482.9869" x="297.54225 308.05278 318.42384">CBC</tspan></text>
<text xml:space="preserve" transform="matrix(1 0 -0 1 0 792)" font-size="9.9626" font-family="Pxsy"><tspan y="-471.03193" x="121.371997">&#x21d2;</tspan></text>
<text xml:space="preserve" transform="matrix(1 0 -0 1 0 792)" font-size="9.9626" font-family="SFRM1000"><tspan y="-471.03193" x="134.24199 139.22328 144.20458">aaa</tspan></text>
<text fill="#ff0000" xml:space="preserve" transform="matrix(1 0 -0 1 0 792)" font-size="9.9626" font-family="SFRM1000"><tspan y="-471.03193" x="149.18587 158.03266">bB</tspan></text>
<text xml:space="preserve" transform="matrix(1 0 -0 1 0 792)" font-size="9.9626" font-family="SFRM1000"><tspan y="-471.03193" x="168.40373 178.92424 189.43479 199.80587">CCBC</tspan></text>
<text xml:space="preserve" transform="matrix(1 0 -0 1 0 792)" font-size="9.9626" font-family="Pxsy"><tspan y="-471.03193" x="210.327">&#x21d2;</tspan></text>
<text xml:space="preserve" transform="matrix(1 0 -0 1 0 792)" font-size="9.9626" font-family="SFRM1000"><tspan y="-471.03193" x="223.196 228.17729 233.15859 238.13988 243.66912 252.5159">aaabbC</tspan></text>
<text fill="#ff0000" xml:space="preserve" transform="matrix(1 0 -0 1 0 792)" font-size="9.9626" font-family="SFRM1000"><tspan y="-471.03193" x="263.0364 273.54695">CB</tspan></text>
<text xml:space="preserve" transform="matrix(1 0 -0 1 0 792)" font-size="9.9626" font-family="SFRM1000"><tspan y="-471.03193" x="283.918">C</tspan></text>
<text xml:space="preserve" transform="matrix(1 0 -0 1 0 792)" font-size="9.9626" font-family="Pxsy"><tspan y="-471.03193" x="294.439">&#x21d2;</tspan><tspan y="-459.07695" x="139.29999">&#x21d2;</tspan></text>
<text xml:space="preserve" transform="matrix(1 0 -0 1 0 792)" font-size="9.9626" font-family="SFRM1000"><tspan y="-459.07695" x="152.16999 157.15128 162.13257 167.11386 172.6431">aaabb</tspan></text>
<text fill="#ff0000" xml:space="preserve" transform="matrix(1 0 -0 1 0 792)" font-size="9.9626" font-family="SFRM1000"><tspan y="-459.07695" x="181.48989 192.01039">CB</tspan></text>
<text xml:space="preserve" transform="matrix(1 0 -0 1 0 792)" font-size="9.9626" font-family="SFRM1000"><tspan y="-459.07695" x="202.38147 212.89202">CC</tspan></text>
<text xml:space="preserve" transform="matrix(1 0 -0 1 0 792)" font-size="9.9626" font-family="Pxsy"><tspan y="-459.07695" x="223.41298">&#x21d2;</tspan></text>
<text xml:space="preserve" transform="matrix(1 0 -0 1 0 792)" font-size="9.9626" font-family="SFRM1000"><tspan y="-459.07695" x="236.28298 241.26427 246.24556 251.22686">aaab</tspan></text>
<text fill="#ff0000" xml:space="preserve" transform="matrix(1 0 -0 1 0 792)" font-size="9.9626" font-family="SFRM1000"><tspan y="-459.07695" x="256.7561 265.60289">bB</tspan></text>
<text xml:space="preserve" transform="matrix(1 0 -0 1 0 792)" font-size="9.9626" font-family="SFRM1000"><tspan y="-459.07695" x="275.97395 286.49446 297.00498">CCC</tspan></text>
<text xml:space="preserve" transform="matrix(1 0 -0 1 0 792)" font-size="9.9626" font-family="Pxsy"><tspan y="-459.07695" x="307.52598">&#x21d2;</tspan><tspan y="-447.12196" x="157.22898">&#x21d2;</tspan></text>
<text xml:space="preserve" transform="matrix(1 0 -0 1 0 792)" font-size="9.9626" font-family="SFRM1000"><tspan y="-447.12196" x="170.09798 175.07927 180.06056 185.04186 190.57109">aaabb</tspan></text>
<text fill="#ff0000" xml:space="preserve" transform="matrix(1 0 -0 1 0 792)" font-size="9.9626" font-family="SFRM1000"><tspan y="-447.12196" x="196.10033 204.94712">bC</tspan></text>
<text xml:space="preserve" transform="matrix(1 0 -0 1 0 792)" font-size="9.9626" font-family="SFRM1000"><tspan y="-447.12196" x="215.46762 225.97817">CC</tspan></text>
<text xml:space="preserve" transform="matrix(1 0 -0 1 0 792)" font-size="9.9626" font-family="Pxsy"><tspan y="-447.12196" x="236.49997">&#x21d2;</tspan></text>
<text xml:space="preserve" transform="matrix(1 0 -0 1 0 792)" font-size="9.9626" font-family="SFRM1000"><tspan y="-447.12196" x="249.36898 254.35027 259.33158 264.31288 269.8421 275.37135">aaabbb</tspan></text>
<text fill="#ff0000" xml:space="preserve" transform="matrix(1 0 -0 1 0 792)" font-size="9.9626" font-family="SFRM1000"><tspan y="-447.12196" x="280.90058 288.6415">cC</tspan></text>
<text xml:space="preserve" transform="matrix(1 0 -0 1 0 792)" font-size="9.9626" font-family="SFRM1000"><tspan y="-447.12196" x="299.16203">C</tspan></text>
<text xml:space="preserve" transform="matrix(1 0 -0 1 0 792)" font-size="9.9626" font-family="Pxsy"><tspan y="-447.12196" x="309.68397">&#x21d2;</tspan><tspan y="-435.16697" x="175.15697">&#x21d2;</tspan></text>
<text xml:space="preserve" transform="matrix(1 0 -0 1 0 792)" font-size="9.9626" font-family="SFRM1000"><tspan y="-435.16697" x="188.02597 193.00727 197.98856 202.96985 208.49909 214.02832 219.8365">aaabbbc</tspan></text>
<text fill="#ff0000" xml:space="preserve" transform="matrix(1 0 -0 1 0 792)" font-size="9.9626" font-family="SFRM1000"><tspan y="-435.16697" x="224.2599 232.00086">cC</tspan></text>
<text xml:space="preserve" transform="matrix(1 0 -0 1 0 792)" font-size="9.9626" font-family="Pxsy"><tspan y="-435.16697" x="242.53098">&#x21d2;</tspan></text>
<text xml:space="preserve" transform="matrix(1 0 -0 1 0 792)" font-size="9.9626" font-family="SFRM1000"><tspan y="-435.16697" x="255.39998 260.3813 265.36259 270.34388 275.8731 281.40235 287.21055 291.63395 296.05735">aaabbbccc</tspan></text>
<text xml:space="preserve" transform="matrix(1 0 -0 1 0 792)" font-size="9.9626" font-family="OpenSans"><tspan y="-411.76799" x="14.411972 20.11058">2.</tspan></text>
<text xml:space="preserve" transform="matrix(1 0 -0 1 0 792)" font-size="9.9626" font-family="OpenSans"><tspan y="-411.76799" x="27.741932 35.00467 41.02208 45.76428 50.416814 56.523889 62.541299 68.85759 73.510128 81.99826 86.26225 92.36932 97.90853 105.23104 112.55355 118.09276 122.74529 129.06159 134.23218 139.25333 144.28444 150.4712 156.48862 162.59569 168.6131 175.94557 181.64418 187.18338 195.4623 204.39875 209.41989 220.27912 225.80835 230.62029 238.29149 243.46208">&#x041f;&#x043e;&#x0441;&#x0442;&#x0440;&#x043e;&#x0438;&#x0442;&#x044c;&#x0433;&#x0440;&#x0430;&#x043c;&#x043c;&#x0430;&#x0442;&#x0438;&#x043a;&#x0443;,&#x043f;&#x043e;&#x0440;&#x043e;&#x0436;&#x0434;&#x0430;&#x044e;&#x0449;&#x0443;&#x044e;&#x044f;&#x0437;&#x044b;&#x043a;:</tspan></text>
<text xml:space="preserve" transform="matrix(1 0 -0 1 0 792)" font-size="9.9626" font-family="OpenSans"><tspan y="-393.09397" x="33.240976 36.189905 41.72911">(a)</tspan></text>
<text xml:space="preserve" transform="matrix(1 0 -0 1 0 792)" font-size="9.9626" font-family="URWPalladioL" font-style="italic"><tspan y="-393.09397" x="49.658975">L</tspan></text>
<text xml:space="preserve" transform="matrix(1 0 -0 1 0 792)" font-size="9.9626" font-family="Rpxr"><tspan y="-393.09397" x="57.965974">=</tspan></text>
<text xml:space="preserve" transform="matrix(1 0 -0 1 0 792)" font-size="9.9626" font-family="Pxsy"><tspan y="-393.09397" x="67.39797">{</tspan></text>
<text xml:space="preserve" transform="matrix(1 0 -0 1 0 792)" font-size="9.9626" font-family="URWPalladioL" font-style="italic"><tspan y="-393.09397" x="70.71597">a</tspan></text>
<text xml:space="preserve" transform="matrix(1 0 -0 1 0 792)" font-size="6.9738" font-family="URWPalladioL" font-style="italic"><tspan y="-396.71098" x="75.13897">n</tspan></text>
<text xml:space="preserve" transform="matrix(1 0 -0 1 0 792)" font-size="9.9626" font-family="URWPalladioL" font-style="italic"><tspan y="-393.09397" x="79.51497">b</tspan></text>
<text xml:space="preserve" transform="matrix(1 0 -0 1 0 792)" font-size="6.9738" font-family="URWPalladioL" font-style="italic"><tspan y="-396.71098" x="84.12697">m</tspan></text>
<text xml:space="preserve" transform="matrix(1 0 -0 1 0 792)" font-size="9.9626" font-family="URWPalladioL" font-style="italic"><tspan y="-393.09397" x="90.050968">c</tspan></text>
<text xml:space="preserve" transform="matrix(1 0 -0 1 0 792)" font-size="6.9738" font-family="URWPalladioL" font-style="italic"><tspan y="-396.71098" x="94.105968">k</tspan></text>
<text xml:space="preserve" transform="matrix(1 0 -0 1 0 792)" font-size="9.9626" font-family="Pxsy"><tspan y="-393.09397" x="100.32297">|</tspan></text>
<text xml:space="preserve" transform="matrix(1 0 -0 1 0 792)" font-size="9.9626" font-family="URWPalladioL" font-style="italic"><tspan y="-393.09397" x="105.01397">n</tspan></text>
<text xml:space="preserve" transform="matrix(1 0 -0 1 0 792)" font-size="9.9626" font-family="Rpxmi"><tspan y="-393.09397" x="110.55297">,</tspan></text>
<text xml:space="preserve" transform="matrix(1 0 -0 1 0 792)" font-size="9.9626" font-family="URWPalladioL" font-style="italic"><tspan y="-393.09397" x="114.70397">m</tspan></text>
<text xml:space="preserve" transform="matrix(1 0 -0 1 0 792)" font-size="9.9626" font-family="Rpxmi"><tspan y="-393.09397" x="122.45497">,</tspan></text>
<text xml:space="preserve" transform="matrix(1 0 -0 1 0 792)" font-size="9.9626" font-family="URWPalladioL" font-style="italic"><tspan y="-393.09397" x="126.60597">k</tspan></text>
<text xml:space="preserve" transform="matrix(1 0 -0 1 0 792)" font-size="9.9626" font-family="Rpxmi"><tspan y="-393.09397" x="133.84598">&#x003e;</tspan></text>
<text xml:space="preserve" transform="matrix(1 0 -0 1 0 792)" font-size="9.9626" font-family="URWPalladioL"><tspan y="-393.09397" x="143.27799">0</tspan></text>
<text xml:space="preserve" transform="matrix(1 0 -0 1 0 792)" font-size="9.9626" font-family="Pxsy"><tspan y="-393.09397" x="148.25998">}</tspan></text>
<text xml:space="preserve" transform="matrix(1 0 -0 1 0 792)" font-size="9.9626" font-family="OpenSans" font-weight="bold"><tspan y="-370.32096" x="49.65898 57.58921 63.09853 69.46463 75.35252 80.86184">&#x041e;&#x0442;&#x0432;&#x0435;&#x0442;:</tspan></text>
<text xml:space="preserve" transform="matrix(1 0 -0 1 0 792)" font-size="9.9626" font-family="SFRM1000"><tspan y="-353.64097" x="121.37198 132.51018 136.38564 141.36693 146.34822 152.44535 157.97458 164.06174 168.48514 173.46643 179.55359 184.53488 190.06412 196.15128 203.62323 209.72035 216.77388 222.86104 230.05403 235.03533 241.12248 247.89705 253.9842 259.51347 263.38893">G({a,b,c},{S,A,B,C},P,S);</tspan><tspan y="-341.68498" x="121.37198 128.14655">P:</tspan><tspan y="-329.72999" x="139.30098">S</tspan></text>
<text xml:space="preserve" transform="matrix(1 0 -0 1 0 792)" font-size="9.9626" font-family="Pxsy"><tspan y="-329.72999" x="148.15398">&#x21d2;</tspan></text>
<text xml:space="preserve" transform="matrix(1 0 -0 1 0 792)" font-size="9.9626" font-family="SFRM1000"><tspan y="-329.72999" x="161.02298 163.79259 168.77388 174.86104 182.333">&#x2019;a&#x2019;A;</tspan><tspan y="-317.775" x="139.30098">A</tspan></text>
<text xml:space="preserve" transform="matrix(1 0 -0 1 0 792)" font-size="9.9626" font-family="Pxsy"><tspan y="-317.775" x="150.09098">&#x21d2;</tspan></text>
<text xml:space="preserve" transform="matrix(1 0 -0 1 0 792)" font-size="9.9626" font-family="SFRM1000"><tspan y="-317.775" x="162.95998 165.72959 170.71088 176.79804 187.5975 193.68466 200.73819">&#x2019;a&#x2019;A|B;</tspan><tspan y="-305.82" x="139.30098">B</tspan></text>
<text xml:space="preserve" transform="matrix(1 0 -0 1 0 792)" font-size="9.9626" font-family="Pxsy"><tspan y="-305.82" x="149.67598">&#x21d2;</tspan></text>
<text xml:space="preserve" transform="matrix(1 0 -0 1 0 792)" font-size="9.9626" font-family="SFRM1000"><tspan y="-305.82" x="162.54499 165.31459 170.84383 176.93099 187.31203 193.39919 196.1688 201.69803 207.78519 214.97818">&#x2019;b&#x2019;B|&#x2019;b&#x2019;C;</tspan><tspan y="-293.86503" x="139.30098">C</tspan></text>
<text xml:space="preserve" transform="matrix(1 0 -0 1 0 792)" font-size="9.9626" font-family="Pxsy"><tspan y="-293.86503" x="149.81398">&#x21d2;</tspan></text>
<text xml:space="preserve" transform="matrix(1 0 -0 1 0 792)" font-size="9.9626" font-family="SFRM1000"><tspan y="-293.86503" x="162.68398 165.45359 169.87699 175.96414 186.48465 192.57181 195.34142 199.76482 202.53443">&#x2019;c&#x2019;C|&#x2019;c&#x2019;;</tspan></text>
<text xml:space="preserve" transform="matrix(1 0 -0 1 0 792)" font-size="9.9626" font-family="OpenSans"><tspan y="-274.45103" x="32.67697 35.6259 41.732976">(b)</tspan></text>
<text xml:space="preserve" transform="matrix(1 0 -0 1 0 792)" font-size="9.9626" font-family="URWPalladioL" font-style="italic"><tspan y="-274.45103" x="49.658975">L</tspan></text>
<text xml:space="preserve" transform="matrix(1 0 -0 1 0 792)" font-size="9.9626" font-family="Rpxr"><tspan y="-274.45103" x="57.965974">=</tspan></text>
<text xml:space="preserve" transform="matrix(1 0 -0 1 0 792)" font-size="9.9626" font-family="Pxsy"><tspan y="-274.45103" x="67.39797">{</tspan></text>
<text xml:space="preserve" transform="matrix(1 0 -0 1 0 792)" font-size="9.9626" font-family="URWPalladioL"><tspan y="-274.45103" x="70.71597">0</tspan></text>
<text xml:space="preserve" transform="matrix(1 0 -0 1 0 792)" font-size="6.9738" font-family="URWPalladioL" font-style="italic"><tspan y="-278.06703" x="75.696979">n</tspan></text>
<text xml:space="preserve" transform="matrix(1 0 -0 1 0 792)" font-size="9.9626" font-family="URWPalladioL"><tspan y="-274.45103" x="80.072978 83.39052 88.37182 93.35312">(10)</tspan></text>
<text xml:space="preserve" transform="matrix(1 0 -0 1 0 792)" font-size="6.9738" font-family="URWPalladioL" font-style="italic"><tspan y="-278.06703" x="96.669979">m</tspan></text>
<text xml:space="preserve" transform="matrix(1 0 -0 1 0 792)" font-size="9.9626" font-family="Pxsy"><tspan y="-274.45103" x="105.18198">|</tspan></text>
<text xml:space="preserve" transform="matrix(1 0 -0 1 0 792)" font-size="9.9626" font-family="URWPalladioL" font-style="italic"><tspan y="-274.45103" x="109.87298">n</tspan></text>
<text xml:space="preserve" transform="matrix(1 0 -0 1 0 792)" font-size="9.9626" font-family="Rpxmi"><tspan y="-274.45103" x="115.41198">,</tspan></text>
<text xml:space="preserve" transform="matrix(1 0 -0 1 0 792)" font-size="9.9626" font-family="URWPalladioL" font-style="italic"><tspan y="-274.45103" x="119.56298">m</tspan></text>
<text xml:space="preserve" transform="matrix(1 0 -0 1 0 792)" font-size="9.9626" font-family="Rpxmi"><tspan y="-274.45103" x="130.08098">&#x003e;</tspan></text>
<text xml:space="preserve" transform="matrix(1 0 -0 1 0 792)" font-size="9.9626" font-family="Rpxr"><tspan y="-274.45103" x="136.74597">=</tspan></text>
<text xml:space="preserve" transform="matrix(1 0 -0 1 0 792)" font-size="9.9626" font-family="URWPalladioL"><tspan y="-274.45103" x="146.17798">0</tspan></text>
<text xml:space="preserve" transform="matrix(1 0 -0 1 0 792)" font-size="9.9626" font-family="Pxsy"><tspan y="-274.45103" x="151.15998">}</tspan></text>
<text xml:space="preserve" transform="matrix(1 0 -0 1 0 792)" font-size="9.9626" font-family="OpenSans" font-weight="bold"><tspan y="-251.67803" x="49.658975 57.589204 63.098524 69.46462 75.352519 80.86183">&#x041e;&#x0442;&#x0432;&#x0435;&#x0442;:</tspan></text>
<text xml:space="preserve" transform="matrix(1 0 -0 1 0 792)" font-size="9.9626" font-family="SFRM1000"><tspan y="-234.99703" x="121.37197 132.51016 136.38562 141.36692 146.3482 152.44533 157.42662 162.39795 168.49507 173.47637 179.0056 185.09276 192.56472 198.65187 205.7054 210.68669 216.78382 223.55838 229.64554 235.17478 239.05023">G({0,1},{S,A,B},P,S);</tspan><tspan y="-223.04203" x="121.37197 128.14655">P:</tspan><tspan y="-211.08702" x="139.30097">S</tspan></text>
<text xml:space="preserve" transform="matrix(1 0 -0 1 0 792)" font-size="9.9626" font-family="Pxsy"><tspan y="-211.08702" x="148.15396">&#x21d2;</tspan></text>
<text xml:space="preserve" transform="matrix(1 0 -0 1 0 792)" font-size="9.9626" font-family="SFRM1000"><tspan y="-211.08702" x="161.02396 163.79357 168.77486 174.86202 183.7088 189.80593 192.57553 197.55683 203.64398 214.43349">&#x2019;0&#x2019;S|&#x2019;1&#x2019;A|</tspan></text>
<text xml:space="preserve" transform="matrix(1 0 -0 1 0 792)" font-size="9.9626" font-family="Rpxmi"><tspan y="-211.08702" x="220.50797">&#x03b5;</tspan></text>
<text xml:space="preserve" transform="matrix(1 0 -0 1 0 792)" font-size="9.9626" font-family="SFRM1000"><tspan y="-211.08702" x="225.42996">;</tspan><tspan y="-199.13202" x="139.30097">A</tspan></text>
<text xml:space="preserve" transform="matrix(1 0 -0 1 0 792)" font-size="9.9626" font-family="Pxsy"><tspan y="-199.13202" x="150.09096">&#x21d2;</tspan></text>
<text xml:space="preserve" transform="matrix(1 0 -0 1 0 792)" font-size="9.9626" font-family="SFRM1000"><tspan y="-199.13202" x="162.95996 165.72957 170.71086 176.79802 187.1691 193.26622 198.24752">&#x2019;0&#x2019;B|0;</tspan><tspan y="-187.17702" x="139.30097">B</tspan></text>
<text xml:space="preserve" transform="matrix(1 0 -0 1 0 792)" font-size="9.9626" font-family="Pxsy"><tspan y="-187.17702" x="149.67597">&#x21d2;</tspan></text>
<text xml:space="preserve" transform="matrix(1 0 -0 1 0 792)" font-size="9.9626" font-family="SFRM1000"><tspan y="-187.17702" x="162.54497 165.31458 170.29587 176.38303 183.85498">&#x2019;1&#x2019;A;</tspan></text>
<text xml:space="preserve" transform="matrix(1 0 -0 1 0 792)" font-size="9.9626" font-family="OpenSans"><tspan y="-167.76302" x="34.03897 36.9879 41.7301">(c)</tspan></text>
<text xml:space="preserve" transform="matrix(1 0 -0 1 0 792)" font-size="9.9626" font-family="URWPalladioL" font-style="italic"><tspan y="-167.76302" x="49.65897">L</tspan></text>
<text xml:space="preserve" transform="matrix(1 0 -0 1 0 792)" font-size="9.9626" font-family="Rpxr"><tspan y="-167.76302" x="57.96597">=</tspan></text>
<text xml:space="preserve" transform="matrix(1 0 -0 1 0 792)" font-size="9.9626" font-family="Pxsy"><tspan y="-167.76302" x="67.39797">{</tspan></text>
<text xml:space="preserve" transform="matrix(1 0 -0 1 0 792)" font-size="9.9626" font-family="URWPalladioL" font-style="italic"><tspan y="-167.76302" x="70.71597">a</tspan></text>
<text xml:space="preserve" transform="matrix(1 0 -0 1 0 792)" font-size="6.9738" font-family="URWPalladioL"><tspan y="-166.26802" x="75.13897">1</tspan></text>
<text xml:space="preserve" transform="matrix(1 0 -0 1 0 792)" font-size="9.9626" font-family="URWPalladioL" font-style="italic"><tspan y="-167.76302" x="79.12397">a</tspan></text>
<text xml:space="preserve" transform="matrix(1 0 -0 1 0 792)" font-size="6.9738" font-family="URWPalladioL"><tspan y="-166.26802" x="83.54697">2</tspan></text>
<text xml:space="preserve" transform="matrix(1 0 -0 1 0 792)" font-size="9.9626" font-family="Rpxmi"><tspan y="-167.76302" x="89.19296 93.34737 97.491809">...</tspan></text>
<text xml:space="preserve" transform="matrix(1 0 -0 1 0 792)" font-size="9.9626" font-family="URWPalladioL" font-style="italic"><tspan y="-167.76302" x="101.645969">a</tspan></text>
<text xml:space="preserve" transform="matrix(1 0 -0 1 0 792)" font-size="6.9738" font-family="URWPalladioL" font-style="italic"><tspan y="-166.26802" x="106.06896">n</tspan></text>
<text xml:space="preserve" transform="matrix(1 0 -0 1 0 792)" font-size="9.9626" font-family="URWPalladioL" font-style="italic"><tspan y="-167.76302" x="110.44496">a</tspan></text>
<text xml:space="preserve" transform="matrix(1 0 -0 1 0 792)" font-size="6.9738" font-family="URWPalladioL" font-style="italic"><tspan y="-166.26802" x="114.86796">n</tspan></text>
<text xml:space="preserve" transform="matrix(1 0 -0 1 0 792)" font-size="9.9626" font-family="Rpxmi"><tspan y="-167.76302" x="120.90396 125.058368 129.2028">...</tspan></text>
<text xml:space="preserve" transform="matrix(1 0 -0 1 0 792)" font-size="9.9626" font-family="URWPalladioL" font-style="italic"><tspan y="-167.76302" x="133.35697">a</tspan></text>
<text xml:space="preserve" transform="matrix(1 0 -0 1 0 792)" font-size="6.9738" font-family="URWPalladioL"><tspan y="-166.26802" x="137.78096">2</tspan></text>
<text xml:space="preserve" transform="matrix(1 0 -0 1 0 792)" font-size="9.9626" font-family="URWPalladioL" font-style="italic"><tspan y="-167.76302" x="141.76596">a</tspan></text>
<text xml:space="preserve" transform="matrix(1 0 -0 1 0 792)" font-size="6.9738" font-family="URWPalladioL"><tspan y="-166.26802" x="146.18897">1</tspan></text>
<text xml:space="preserve" transform="matrix(1 0 -0 1 0 792)" font-size="9.9626" font-family="Pxsy"><tspan y="-167.76302" x="152.76297">|</tspan></text>
<text xml:space="preserve" transform="matrix(1 0 -0 1 0 792)" font-size="9.9626" font-family="URWPalladioL" font-style="italic"><tspan y="-167.76302" x="157.45298">a</tspan></text>
<text xml:space="preserve" transform="matrix(1 0 -0 1 0 792)" font-size="6.9738" font-family="URWPalladioL" font-style="italic"><tspan y="-166.26802" x="161.87598">i</tspan></text>
<text xml:space="preserve" transform="matrix(1 0 -0 1 0 792)" font-size="9.9626" font-family="Pxsy"><tspan y="-167.76302" x="167.07997 175.46849">&#x2208;{</tspan></text>
<text xml:space="preserve" transform="matrix(1 0 -0 1 0 792)" font-size="9.9626" font-family="URWPalladioL"><tspan y="-167.76302" x="178.78397">0</tspan></text>
<text xml:space="preserve" transform="matrix(1 0 -0 1 0 792)" font-size="9.9626" font-family="Rpxmi"><tspan y="-167.76302" x="183.76596">,</tspan></text>
<text xml:space="preserve" transform="matrix(1 0 -0 1 0 792)" font-size="9.9626" font-family="URWPalladioL"><tspan y="-167.76302" x="187.91696">1</tspan></text>
<text xml:space="preserve" transform="matrix(1 0 -0 1 0 792)" font-size="9.9626" font-family="Pxsy"><tspan y="-167.76302" x="192.89797 196.21552">}}</tspan></text>
<text xml:space="preserve" transform="matrix(1 0 -0 1 0 792)" font-size="9.9626" font-family="OpenSans" font-weight="bold"><tspan y="-144.99002" x="49.658967 57.589197 63.098516 69.464618 75.35251 80.861827">&#x041e;&#x0442;&#x0432;&#x0435;&#x0442;:</tspan></text>
<text xml:space="preserve" transform="matrix(1 0 -0 1 0 792)" font-size="9.9626" font-family="SFRM1000"><tspan y="-128.30902" x="121.37196 132.51016 136.38562 141.36692 146.3482 152.44533 157.42662 162.39795 168.49507 173.47637 179.0056 185.09276 192.56472 198.65187 205.7054 210.68669 216.78382 223.55838 229.64554 235.17478 239.05023">G({0,1},{S,A,B},P,S);</tspan><tspan y="-116.35402" x="121.37196 128.14653">P:</tspan><tspan y="-104.39902" x="139.30097">S</tspan></text>
<text xml:space="preserve" transform="matrix(1 0 -0 1 0 792)" font-size="9.9626" font-family="Pxsy"><tspan y="-104.39902" x="148.15396">&#x21d2;</tspan></text>
<text xml:space="preserve" transform="matrix(1 0 -0 1 0 792)" font-size="9.9626" font-family="SFRM1000"><tspan y="-104.39902" x="161.02396 163.79357 168.77486 174.86202 185.65152 191.74864 194.51825 199.49954 205.5867 212.64023">&#x2019;0&#x2019;A|&#x2019;1&#x2019;B;</tspan><tspan y="-92.444019" x="139.30097">A</tspan></text>
<text xml:space="preserve" transform="matrix(1 0 -0 1 0 792)" font-size="9.9626" font-family="Pxsy"><tspan y="-92.444019" x="150.09096">&#x21d2;</tspan></text>
<text xml:space="preserve" transform="matrix(1 0 -0 1 0 792)" font-size="9.9626" font-family="SFRM1000"><tspan y="-92.444019" x="162.95996 171.80675 174.57636 179.55765 185.65477">S&#x2019;0&#x2019;|</tspan></text>
<text xml:space="preserve" transform="matrix(1 0 -0 1 0 792)" font-size="9.9626" font-family="Rpxmi"><tspan y="-92.444019" x="191.73397">&#x03b5;</tspan></text>
<text xml:space="preserve" transform="matrix(1 0 -0 1 0 792)" font-size="9.9626" font-family="SFRM1000"><tspan y="-92.444019" x="196.65596">;</tspan><tspan y="-80.488018" x="139.30097">B</tspan></text>
<text xml:space="preserve" transform="matrix(1 0 -0 1 0 792)" font-size="9.9626" font-family="Pxsy"><tspan y="-80.488018" x="149.67597">&#x21d2;</tspan></text>
<text xml:space="preserve" transform="matrix(1 0 -0 1 0 792)" font-size="9.9626" font-family="SFRM1000"><tspan y="-80.488018" x="162.54497 171.39176 174.16136 179.14266 185.23978">S&#x2019;1&#x2019;|</tspan></text>
<text xml:space="preserve" transform="matrix(1 0 -0 1 0 792)" font-size="9.9626" font-family="Rpxmi"><tspan y="-80.488018" x="191.31897">&#x03b5;</tspan></text>
<text xml:space="preserve" transform="matrix(1 0 -0 1 0 792)" font-size="9.9626" font-family="SFRM1000"><tspan y="-80.488018" x="196.24097">;</tspan></text>
<text xml:space="preserve" transform="matrix(1 0 -0 1 0 792)" font-size="9.9626" font-family="OpenSans"><tspan y="-57.089014" x="14.411972 20.11058">3.</tspan></text>
<text xml:space="preserve" transform="matrix(1 0 -0 1 0 792)" font-size="9.9626" font-family="OpenSans"><tspan y="-57.089014" x="27.741932 36.429319 41.599908 47.139116 52.309705 58.327116 65.64963 73.261058 77.91359 84.22988 90.41666 98.01812 104.204898 112.812587 118.561008 124.578418 131.90093 136.64313 141.81372 147.83113 155.15364 162.76506 168.78247 173.435 179.75128 185.76869 190.5109 196.82718 201.4797 206.22191 214.34142 218.60541 224.71248 230.25168 237.57419 244.8967 250.4359 255.08843 261.40473 266.57533 274.7048 282.0273 288.21409 294.32118 300.63746 306.30619 311.8952 317.5938 323.18284 329.4991 335.8154 343.4866 350.8091 359.71568 365.90245 372.00953 377.54875 383.21748 389.53376 395.2224 400.76164 408.08415 414.40043 421.26466 427.57099 433.67808 437.94209 442.96324 450.28575 455.87477 462.19105 466.84358 473.15986 479.26695 484.2881 490.60438 495.2569 503.4362 509.4536 514.10617 519.77487 525.36386 530.01638">&#x041a;&#x043a;&#x0430;&#x043a;&#x043e;&#x043c;&#x0443;&#x0442;&#x0438;&#x043f;&#x0443;&#x043f;&#x043e;&#x0425;&#x043e;&#x043c;&#x0441;&#x043a;&#x043e;&#x043c;&#x0443;&#x043e;&#x0442;&#x043d;&#x043e;&#x0441;&#x0438;&#x0442;&#x0441;&#x044f;&#x0433;&#x0440;&#x0430;&#x043c;&#x043c;&#x0430;&#x0442;&#x0438;&#x043a;&#x0430;&#x0441;&#x043f;&#x0440;&#x0438;&#x0432;&#x0435;&#x0434;&#x0435;&#x043d;&#x043d;&#x044b;&#x043c;&#x0438;&#x043f;&#x0440;&#x0430;&#x0432;&#x0438;&#x043b;&#x0430;&#x043c;&#x0438;?&#x0410;&#x0440;&#x0433;&#x0443;&#x043c;&#x0435;&#x043d;&#x0442;&#x0438;&#x0440;&#x0443;&#x0439;&#x0442;&#x0435;&#x043e;&#x0442;&#x0432;&#x0435;&#x0442;.</tspan></text>
<text xml:space="preserve" transform="matrix(1 0 -0 1 0 792)" font-size="9.9626" font-family="OpenSans"><tspan y="-35.057016" x="33.240976 36.189905 41.72911">(a)</tspan></text>
<text xml:space="preserve" transform="matrix(1 0 -0 1 0 792)" font-size="9.9626" font-family="SFRM1000"><tspan y="-35.057016" x="121.37197">S</tspan></text>
<text xml:space="preserve" transform="matrix(1 0 -0 1 0 792)" font-size="9.9626" font-family="Pxsy"><tspan y="-35.057016" x="130.22597">&#x21d2;</tspan></text>
<text xml:space="preserve" transform="matrix(1 0 -0 1 0 792)" font-size="9.9626" font-family="SFRM1000"><tspan y="-35.057016" x="143.09497 145.86458 150.84587 156.93303 167.7325 170.5021 175.4834 181.57056 187.65772 190.42733 195.40862 200.38991 203.15952">&#x2019;0&#x2019;A&#x2019;1&#x2019;|&#x2019;01&#x2019;;</tspan><tspan y="-23.102015" x="121.37197 124.14157 129.12287 135.21002">&#x2019;0&#x2019;A</tspan></text>
<text xml:space="preserve" transform="matrix(1 0 -0 1 0 792)" font-size="9.9626" font-family="Pxsy"><tspan y="-23.102015" x="145.99597">&#x21d2;</tspan></text>
<text xml:space="preserve" transform="matrix(1 0 -0 1 0 792)" font-size="9.9626" font-family="SFRM1000"><tspan y="-23.102015" x="158.86597 161.63558 166.61687 171.59816 177.68532 188.47483 191.24443 196.22573 198.99533">&#x2019;00&#x2019;A&#x2019;1&#x2019;;</tspan><tspan y="-11.147015" x="121.37196">A</tspan></text>
<text xml:space="preserve" transform="matrix(1 0 -0 1 0 792)" font-size="9.9626" font-family="Pxsy"><tspan y="-11.147015" x="132.16297">&#x21d2;</tspan></text>
<text xml:space="preserve" transform="matrix(1 0 -0 1 0 792)" font-size="9.9626" font-family="SFRM1000"><tspan y="-11.147015" x="145.03197 147.80158 152.78287 157.76416 160.53377">&#x2019;01&#x2019;;</tspan></text>
</g>
</svg>
