<?xml version="1.0" encoding="UTF-8" standalone="no"?>
<!DOCTYPE svg PUBLIC "-//W3C//DTD SVG 1.1//EN" "http://www.w3.org/Graphics/SVG/1.1/DTD/svg11.dtd">
<svg xmlns="http://www.w3.org/2000/svg" xmlns:xlink="http://www.w3.org/1999/xlink" version="1.1" width="612pt" height="792pt" viewBox="0 0 612 792">
<g enable-background="new">
<text xml:space="preserve" transform="matrix(1 0 -0 1 0 792)" font-size="9.9626" font-family="OpenSans" font-weight="bold"><tspan y="-779.203" x="49.659 55.915513 61.80341 71.45717 77.34506 83.94031 91.11338 97.001277">&#x0420;&#x0435;&#x0448;&#x0435;&#x043d;&#x0438;&#x0435;:</tspan></text>
<text xml:space="preserve" transform="matrix(1 0 -0 1 0 792)" font-size="9.9626" font-family="OpenSans"><tspan y="-762.266" x="49.659 55.75611 64.13466 68.39865 74.50572 80.04493 87.36744 94.68995 100.22916 104.88169 111.19798 116.368579 121.90778">&#x041a;&#x0417;&#x0433;&#x0440;&#x0430;&#x043c;&#x043c;&#x0430;&#x0442;&#x0438;&#x043a;&#x0430;:</tspan><tspan y="-750.311" x="49.659 58.70504 64.393688 69.982707 75.65142 81.66883 90.5754 99.47201 105.65878 111.765857 117.30506 122.97378 128.9912 137.89775 143.95502 149.49422 154.23642 158.88895 164.41819 172.22885 177.89757 185.56877 191.67584 197.21504 204.54752 210.13654 216.45282 222.7691 231.67566 237.99195 246.17124 252.10895 258.12638 263.81504 269.40406 277.5734 285.86228 292.17857 297.76759 302.4201 308.00914 314.1162 321.43873 327.755 334.0713 339.6105 345.29917">&#x0412;&#x043b;&#x0435;&#x0432;&#x043e;&#x0439;&#x0438;&#x043f;&#x0440;&#x0430;&#x0432;&#x043e;&#x0439;&#x0447;&#x0430;&#x0441;&#x0442;&#x044f;&#x0445;&#x0432;&#x044b;&#x0440;&#x0430;&#x0436;&#x0435;&#x043d;&#x0438;&#x0439;&#x043d;&#x0435;&#x0431;&#x043e;&#x043b;&#x0435;&#x0435;1&#x043d;&#x0435;&#x0442;&#x0435;&#x0440;&#x043c;&#x0438;&#x043d;&#x0430;&#x043b;&#x0430;</tspan></text>
<text xml:space="preserve" transform="matrix(1 0 -0 1 0 792)" font-size="9.9626" font-family="Pxsy"><tspan y="-750.311" x="353.395">&#x21d2;</tspan></text>
<text xml:space="preserve" transform="matrix(1 0 -0 1 0 792)" font-size="9.9626" font-family="OpenSans"><tspan y="-750.311" x="366.086 370.35 376.4571 381.9963 389.31883 396.64134 402.18055 406.83308 413.14936 418.31996 426.44944 431.19163 437.20906 443.22648 447.879 453.54774 459.13676 463.78929 468.53147 473.184 478.85273 483.87388 489.4629 496.7057 504.98463 509.63716 515.9534 522.1402 527.1614">&#x0433;&#x0440;&#x0430;&#x043c;&#x043c;&#x0430;&#x0442;&#x0438;&#x043a;&#x0430;&#x0441;&#x043e;&#x043e;&#x0442;&#x0432;&#x0435;&#x0442;&#x0441;&#x0442;&#x0432;&#x0443;&#x0435;&#x0442;1&#x0442;&#x0438;&#x043f;&#x0443;.</tspan><tspan y="-733.375" x="49.658998 55.756109 64.63278 68.896778 75.003849 80.54305 87.86556 95.18807 100.72728 105.379817 111.696109 116.8667 122.40591">&#x041a;&#x0421;&#x0433;&#x0440;&#x0430;&#x043c;&#x043c;&#x0430;&#x0442;&#x0438;&#x043a;&#x0430;:</tspan></text>
<text xml:space="preserve" transform="matrix(1 0 -0 1 0 792)" font-size="9.9626" font-family="SFRM1000"><tspan y="-721.419" x="49.658998 52.4286 57.4099 63.49705">&#x2019;0&#x2019;A</tspan></text>
<text xml:space="preserve" transform="matrix(1 0 -0 1 0 792)" font-size="9.9626" font-family="Pxsy"><tspan y="-721.419" x="74.283">&#x21d2;</tspan></text>
<text xml:space="preserve" transform="matrix(1 0 -0 1 0 792)" font-size="9.9626" font-family="SFRM1000"><tspan y="-721.419" x="87.152 89.9216 94.9029 99.8842 105.971347 116.770809 119.540409 124.521709">&#x2019;00&#x2019;A&#x2019;1&#x2019;</tspan></text>
<text xml:space="preserve" transform="matrix(1 0 -0 1 0 792)" font-size="9.9626" font-family="OpenSans"><tspan y="-721.419" x="127.270008 132.51033 141.55637 147.24501 152.83403 158.50275 164.52016 173.41675 179.47402 185.01322 189.75542 194.40795 203.3145 209.50127 215.60834 221.92462 226.66683 231.68798 236.3405 241.0827 245.73523 251.40395 256.4251 264.70405 271.94685 276.59938 282.1884 288.29548 295.61799 301.93428 308.25056 313.78977 319.47843 325.37629 331.69258 339.36378 347.54307 352.28526 358.60154 365.92405 371.59278 377.6102 383.29887 390.97007">:&#x0412;&#x043b;&#x0435;&#x0432;&#x043e;&#x0439;&#x0447;&#x0430;&#x0441;&#x0442;&#x0438;&#x043f;&#x0440;&#x0438;&#x0441;&#x0443;&#x0442;&#x0441;&#x0442;&#x0432;&#x0443;&#x044e;&#x0442;&#x0442;&#x0435;&#x0440;&#x043c;&#x0438;&#x043d;&#x0430;&#x043b;&#x044c;&#x043d;&#x044b;&#x0435;&#x0441;&#x0438;&#x043c;&#x0432;&#x043e;&#x043b;&#x044b;.</tspan></text>
<text xml:space="preserve" transform="matrix(1 0 -0 1 0 792)" font-size="9.9626" font-family="OpenSans" font-weight="bold"><tspan y="-695.517" x="49.659006 57.589235 63.098554 69.46465 75.35255 80.86186">&#x041e;&#x0442;&#x0432;&#x0435;&#x0442;:</tspan></text>
<text xml:space="preserve" transform="matrix(1 0 -0 1 0 792)" font-size="9.9626" font-family="OpenSans"><tspan y="-695.517" x="86.295009 92.39212 98.40953 104.72582 109.37836 114.96738 120.13797 124.880168 129.5327 135.84899 141.8664 145.07436 149.88629 155.42549 161.09421 167.41049 172.1527 178.46898 185.79149 191.33069 199.4502 203.71419 209.82126 215.36046 222.68297 230.00548 235.54468 240.1972 246.51349 251.68408 259.81358 262.7625 271.04145 275.69398 282.01026 288.19703 291.14598">&#x041a;&#x043e;&#x043d;&#x0442;&#x0435;&#x043a;&#x0441;&#x0442;&#x043d;&#x043e;-&#x0437;&#x0430;&#x0432;&#x0438;&#x0441;&#x0438;&#x043c;&#x0430;&#x044f;&#x0433;&#x0440;&#x0430;&#x043c;&#x043c;&#x0430;&#x0442;&#x0438;&#x043a;&#x0430;(1&#x0442;&#x0438;&#x043f;).</tspan></text>
<text xml:space="preserve" transform="matrix(1 0 -0 1 0 792)" font-size="9.9626" font-family="OpenSans"><tspan y="-675.591" x="32.677007 35.625936 41.73301">(b)</tspan></text>
<text xml:space="preserve" transform="matrix(1 0 -0 1 0 792)" font-size="9.9626" font-family="SFRM1000"><tspan y="-675.591" x="121.37201">S</tspan></text>
<text xml:space="preserve" transform="matrix(1 0 -0 1 0 792)" font-size="9.9626" font-family="Pxsy"><tspan y="-675.591" x="130.22602">&#x21d2;</tspan></text>
<text xml:space="preserve" transform="matrix(1 0 -0 1 0 792)" font-size="9.9626" font-family="SFRM1000"><tspan y="-675.591" x="143.09502 153.88452 156.65413 162.18337 164.95298">A&#x2019;b&#x2019;;</tspan><tspan y="-663.636" x="121.37202">A</tspan></text>
<text xml:space="preserve" transform="matrix(1 0 -0 1 0 792)" font-size="9.9626" font-family="Pxsy"><tspan y="-663.636" x="132.16202">&#x21d2;</tspan></text>
<text xml:space="preserve" transform="matrix(1 0 -0 1 0 792)" font-size="9.9626" font-family="SFRM1000"><tspan y="-663.636" x="145.03202 155.82152 158.59113 163.57242 169.65958 175.7567 178.5263 184.05554 189.03684 191.80644">A&#x2019;a&#x2019;|&#x2019;ba&#x2019;;</tspan></text>
<text xml:space="preserve" transform="matrix(1 0 -0 1 0 792)" font-size="9.9626" font-family="OpenSans" font-weight="bold"><tspan y="-631.756" x="49.65901 55.915525 61.80342 71.457187 77.34508 83.94032 91.113399 97.00129">&#x0420;&#x0435;&#x0448;&#x0435;&#x043d;&#x0438;&#x0435;:</tspan></text>
<text xml:space="preserve" transform="matrix(1 0 -0 1 0 792)" font-size="9.9626" font-family="OpenSans"><tspan y="-614.819" x="49.65901 55.756124 64.134677 68.39867 74.50574 80.044948 87.367458 94.689968 100.22917 104.88171 111.198 116.36859 121.9078">&#x041a;&#x0417;&#x0433;&#x0440;&#x0430;&#x043c;&#x043c;&#x0430;&#x0442;&#x0438;&#x043a;&#x0430;:</tspan><tspan y="-602.86398" x="49.65901 58.70505 64.3937 69.98272 75.651439 81.668849 90.57542 99.47202 105.6588 111.76587 117.30508 122.97379 128.99121 137.89777 143.95503 149.49423 154.23644 158.88896 164.4182 172.22887 177.89759 185.56879 191.67586 197.21506 204.54753 210.13655 216.45284 222.76912 231.67568 237.99196 246.17125 252.10897 258.12638 263.81504 269.40406 277.5734 285.86228 292.17857 297.76759 302.4201 308.00914 314.1162 321.43873 327.755 334.0713 339.6105 345.29917">&#x0412;&#x043b;&#x0435;&#x0432;&#x043e;&#x0439;&#x0438;&#x043f;&#x0440;&#x0430;&#x0432;&#x043e;&#x0439;&#x0447;&#x0430;&#x0441;&#x0442;&#x044f;&#x0445;&#x0432;&#x044b;&#x0440;&#x0430;&#x0436;&#x0435;&#x043d;&#x0438;&#x0439;&#x043d;&#x0435;&#x0431;&#x043e;&#x043b;&#x0435;&#x0435;1&#x043d;&#x0435;&#x0442;&#x0435;&#x0440;&#x043c;&#x0438;&#x043d;&#x0430;&#x043b;&#x0430;</tspan></text>
<text xml:space="preserve" transform="matrix(1 0 -0 1 0 792)" font-size="9.9626" font-family="Pxsy"><tspan y="-602.86398" x="353.39503">&#x21d2;</tspan></text>
<text xml:space="preserve" transform="matrix(1 0 -0 1 0 792)" font-size="9.9626" font-family="OpenSans"><tspan y="-602.86398" x="366.08604 370.35005 376.45713 381.99635 389.31886 396.64137 402.18058 406.8331 413.14939 418.31999 426.44947 431.19166 437.20909 443.2265 447.87904 453.54777 459.13679 463.7893 468.5315 473.18403 478.85276 483.8739 489.46293 496.70573 504.98466 509.63719 515.9535 522.14028 527.16146">&#x0433;&#x0440;&#x0430;&#x043c;&#x043c;&#x0430;&#x0442;&#x0438;&#x043a;&#x0430;&#x0441;&#x043e;&#x043e;&#x0442;&#x0432;&#x0435;&#x0442;&#x0441;&#x0442;&#x0432;&#x0443;&#x0435;&#x0442;1&#x0442;&#x0438;&#x043f;&#x0443;.</tspan><tspan y="-585.92697" x="49.659029 55.756139 64.63281 68.896808 75.003879 80.54308 87.86559 95.1881 100.72731 105.379848 111.69614 116.86673 122.40594">&#x041a;&#x0421;&#x0433;&#x0440;&#x0430;&#x043c;&#x043c;&#x0430;&#x0442;&#x0438;&#x043a;&#x0430;:</tspan><tspan y="-573.9719" x="49.659029 58.705068 64.393718 69.982738 75.65145 83.322658 91.13334 97.1906 102.729808 107.472 112.124538 117.65378 125.4545 131.12322 138.79442 144.90149 150.44069 157.77317 163.36219 169.67847 175.99475 184.9013 190.91872 195.57125 200.31345 205.3346 209.98712 214.72933 219.38185 225.05057 230.07172 238.35063 245.59343 250.24596 255.83498 261.94206 269.26457 275.58085 281.89714 287.43635 293.125">&#x0412;&#x043b;&#x0435;&#x0432;&#x044b;&#x0445;&#x0447;&#x0430;&#x0441;&#x0442;&#x044f;&#x0445;&#x0432;&#x044b;&#x0440;&#x0430;&#x0436;&#x0435;&#x043d;&#x0438;&#x0439;&#x043e;&#x0442;&#x0441;&#x0443;&#x0442;&#x0441;&#x0442;&#x0432;&#x0443;&#x044e;&#x0442;&#x0442;&#x0435;&#x0440;&#x043c;&#x0438;&#x043d;&#x0430;&#x043b;&#x044b;</tspan></text>
<text xml:space="preserve" transform="matrix(1 0 -0 1 0 792)" font-size="9.9626" font-family="Pxsy"><tspan y="-573.9719" x="303.35203">&#x21d2;</tspan></text>
<text xml:space="preserve" transform="matrix(1 0 -0 1 0 792)" font-size="9.9626" font-family="OpenSans"><tspan y="-573.9719" x="316.04304 320.30705 326.41413 331.95335 339.27586 346.59837 352.13758 356.7901 363.10639 368.27699 376.40647 381.14866 387.16609 393.1835 397.83604 403.50477 409.09379 413.7463 418.4885 423.14103 428.80976 433.8309 439.41993 446.66273 454.94166 459.59419 465.91047 472.09724 477.11839">&#x0433;&#x0440;&#x0430;&#x043c;&#x043c;&#x0430;&#x0442;&#x0438;&#x043a;&#x0430;&#x0441;&#x043e;&#x043e;&#x0442;&#x0432;&#x0435;&#x0442;&#x0441;&#x0442;&#x0432;&#x0443;&#x0435;&#x0442;2&#x0442;&#x0438;&#x043f;&#x0443;.</tspan><tspan y="-557.03598" x="49.659029 55.656515 61.245534 65.50953 70.53068 76.21932 81.748569 87.85564 94.17193 99.711139 107.83066 112.09465 118.20172 123.74093 131.06345 138.38596 143.92516 148.57769 154.89397 160.06456 165.60376">&#x0420;&#x0435;&#x0433;&#x0443;&#x043b;&#x044f;&#x0440;&#x043d;&#x0430;&#x044f;&#x0433;&#x0440;&#x0430;&#x043c;&#x043c;&#x0430;&#x0442;&#x0438;&#x043a;&#x0430;:</tspan><tspan y="-545.08096" x="49.659029 55.99524 61.66396 67.35261 72.88185 78.47087 83.123409 87.8656">&#x042f;&#x0432;&#x043b;&#x044f;&#x0435;&#x0442;&#x0441;&#x044f;</tspan></text>
<text xml:space="preserve" transform="matrix(1 0 -0 1 0 792)" font-size="9.9626" font-family="OpenSans" font-style="italic"><tspan y="-545.08096" x="95.984027 101.33394 106.2455 111.60538 117.1944 122.54431 128.29273 134.26032 139.17188 144.92029 150.88788 156.4769">&#x043b;&#x0435;&#x0432;&#x043e;&#x043b;&#x0438;&#x043d;&#x0435;&#x0439;&#x043d;&#x043e;&#x0439;</tspan></text>
<text xml:space="preserve" transform="matrix(1 0 -0 1 0 792)" font-size="9.9626" font-family="OpenSans"><tspan y="-545.08096" x="164.82602 169.09001 175.19709 180.73628 188.05879 195.3813 200.9205 205.57303 211.88932 217.0599 223.07732 229.3936 234.42472 239.07724 241.7273 246.89789 252.13822 258.4545 264.04353 268.69606 274.28507 280.39216 287.71467 294.03096 300.34724 305.88645 311.5751 321.82664 330.08564 336.2724 342.3795 347.9187 353.58744 359.60487 368.5114 374.56867 380.10789 384.85008 389.5026 398.40916 404.07789 408.82008 414.4091 418.6731 424.3717 432.5012 437.24339 442.93205 448.52107 454.21968 459.2408 467.51976 474.7526 480.93937 486.52839 492.63548 498.2245 506.51338 511.1659 516.7549 522.86196 530.18447 536.50076 542.817 548.3562 554.04489 559.58407 566.90658 573.22286">&#x0433;&#x0440;&#x0430;&#x043c;&#x043c;&#x0430;&#x0442;&#x0438;&#x043a;&#x043e;&#x0439;,&#x0442;.&#x043a;.&#x043d;&#x0435;&#x0442;&#x0435;&#x0440;&#x043c;&#x0438;&#x043d;&#x0430;&#x043b;&#x044b;&#x0432;&#x043f;&#x0440;&#x0430;&#x0432;&#x043e;&#x0439;&#x0447;&#x0430;&#x0441;&#x0442;&#x0438;&#x0432;&#x0441;&#x0435;&#x0433;&#x0434;&#x0430;&#x0441;&#x043b;&#x0435;&#x0434;&#x0443;&#x044e;&#x0442;&#x043f;&#x0435;&#x0440;&#x0435;&#x0434;&#x0442;&#x0435;&#x0440;&#x043c;&#x0438;&#x043d;&#x0430;&#x043b;&#x0430;&#x043c;&#x0438;.</tspan></text>
<text xml:space="preserve" transform="matrix(1 0 -0 1 0 792)" font-size="9.9626" font-family="OpenSans" font-weight="bold"><tspan y="-519.1779" x="49.65902 57.58925 63.098569 69.46467 75.35256 80.86188">&#x041e;&#x0442;&#x0432;&#x0435;&#x0442;:</tspan></text>
<text xml:space="preserve" transform="matrix(1 0 -0 1 0 792)" font-size="9.9626" font-family="OpenSans"><tspan y="-519.1779" x="86.29502 92.2925 97.88152 102.145519 107.166667 112.85531 118.38455 124.49162 130.8079 136.3471 144.46662 148.7306 154.83768 160.37688 167.69939 175.0219 180.5611 185.21363 191.5299 196.7005 204.82997 207.7789 216.05782 220.71035 227.02663 233.2134 236.16233">&#x0420;&#x0435;&#x0433;&#x0443;&#x043b;&#x044f;&#x0440;&#x043d;&#x0430;&#x044f;&#x0433;&#x0440;&#x0430;&#x043c;&#x043c;&#x0430;&#x0442;&#x0438;&#x043a;&#x0430;(3&#x0442;&#x0438;&#x043f;).</tspan></text>
<text xml:space="preserve" transform="matrix(1 0 -0 1 0 792)" font-size="9.9626" font-family="OpenSans"><tspan y="-499.25193" x="14.412018 20.110627">4.</tspan></text>
<text xml:space="preserve" transform="matrix(1 0 -0 1 0 792)" font-size="9.9626" font-family="OpenSans"><tspan y="-499.25193" x="27.741978 35.004716 41.022127 45.764326 50.41686 56.523935 62.541345 68.857639 73.51017 81.99831 88.09542 94.38182 97.589778 101.85377 107.96084 113.500049 120.822559 128.14507 133.68427 138.33679 144.65308 149.82367 154.84482 159.87593 164.77753 169.94812 175.61684 181.93312 187.60184 193.14104 198.82968 204.4187 210.73499 215.38751 221.7038 226.72495 237.58417 241.84816 247.95523 253.49443 260.81697 268.13948 273.67869 278.3312 284.6475 289.81809 297.99739 305.32984 311.5166 317.6237 323.1629 328.83164 335.14793 340.83659 346.3758 353.6983 360.0146">&#x041f;&#x043e;&#x0441;&#x0442;&#x0440;&#x043e;&#x0438;&#x0442;&#x044c;&#x041a;&#x0421;-&#x0433;&#x0440;&#x0430;&#x043c;&#x043c;&#x0430;&#x0442;&#x0438;&#x043a;&#x0443;,&#x044d;&#x043a;&#x0432;&#x0438;&#x0432;&#x0430;&#x043b;&#x0435;&#x043d;&#x0442;&#x043d;&#x0443;&#x044e;&#x0433;&#x0440;&#x0430;&#x043c;&#x043c;&#x0430;&#x0442;&#x0438;&#x043a;&#x0435;&#x0441;&#x043f;&#x0440;&#x0430;&#x0432;&#x0438;&#x043b;&#x0430;&#x043c;&#x0438;:</tspan></text>
<text xml:space="preserve" transform="matrix(1 0 -0 1 0 792)" font-size="9.9626" font-family="SFRM1000"><tspan y="-481.31993" x="63.59802">S</tspan></text>
<text xml:space="preserve" transform="matrix(1 0 -0 1 0 792)" font-size="9.9626" font-family="Pxsy"><tspan y="-481.31993" x="72.45102">&#x21d2;</tspan></text>
<text xml:space="preserve" transform="matrix(1 0 -0 1 0 792)" font-size="9.9626" font-family="SFRM1000"><tspan y="-481.31993" x="85.32102 96.11051 106.481578 112.57868 123.36817 133.73925 139.26848">AB|ABS;</tspan><tspan y="-469.36494" x="63.598024 74.38752">AB</tspan></text>
<text xml:space="preserve" transform="matrix(1 0 -0 1 0 792)" font-size="9.9626" font-family="Pxsy"><tspan y="-469.36494" x="84.76302">&#x21d2;</tspan></text>
<text xml:space="preserve" transform="matrix(1 0 -0 1 0 792)" font-size="9.9626" font-family="SFRM1000"><tspan y="-469.36494" x="97.633029 108.00409 115.47604">BA;</tspan><tspan y="-457.40895" x="63.598028 73.96909">BA</tspan></text>
<text xml:space="preserve" transform="matrix(1 0 -0 1 0 792)" font-size="9.9626" font-family="Pxsy"><tspan y="-457.40895" x="84.76303">&#x21d2;</tspan></text>
<text xml:space="preserve" transform="matrix(1 0 -0 1 0 792)" font-size="9.9626" font-family="SFRM1000"><tspan y="-457.40895" x="97.63303 108.42252 115.47604">AB;</tspan><tspan y="-445.45396" x="63.598035">A</tspan></text>
<text xml:space="preserve" transform="matrix(1 0 -0 1 0 792)" font-size="9.9626" font-family="Pxsy"><tspan y="-445.45396" x="74.38803">&#x21d2;</tspan></text>
<text xml:space="preserve" transform="matrix(1 0 -0 1 0 792)" font-size="9.9626" font-family="SFRM1000"><tspan y="-445.45396" x="87.257038 90.026638 95.007938 97.777538">&#x2019;a&#x2019;;</tspan><tspan y="-433.49897" x="63.598035">B</tspan></text>
<text xml:space="preserve" transform="matrix(1 0 -0 1 0 792)" font-size="9.9626" font-family="Pxsy"><tspan y="-433.49897" x="73.97304">&#x21d2;</tspan></text>
<text xml:space="preserve" transform="matrix(1 0 -0 1 0 792)" font-size="9.9626" font-family="SFRM1000"><tspan y="-433.49897" x="86.84204 89.61164 95.140888 97.910488">&#x2019;b&#x2019;;</tspan></text>
<text xml:space="preserve" transform="matrix(1 0 -0 1 0 792)" font-size="9.9626" font-family="OpenSans" font-weight="bold"><tspan y="-411.58097" x="27.74104 33.99755 39.88545 49.539209 55.427106 62.022348 69.19542 75.08331">&#x0420;&#x0435;&#x0448;&#x0435;&#x043d;&#x0438;&#x0435;:</tspan></text>
<text xml:space="preserve" transform="matrix(1 0 -0 1 0 792)" font-size="9.9626" font-family="URWPalladioL" font-style="italic"><tspan y="-392.65199" x="27.74104">L</tspan></text>
<text xml:space="preserve" transform="matrix(1 0 -0 1 0 792)" font-size="9.9626" font-family="Pxsy"><tspan y="-392.65199" x="36.04804 44.43655">&#x220b;{</tspan></text>
<text xml:space="preserve" transform="matrix(1 0 -0 1 0 792)" font-size="9.9626" font-family="URWPalladioL" font-style="italic"><tspan y="-392.65199" x="47.752038 52.17543">ab</tspan></text>
<text xml:space="preserve" transform="matrix(1 0 -0 1 0 792)" font-size="9.9626" font-family="URWPalladioL"><tspan y="-392.65199" x="56.787038">;</tspan></text>
<text xml:space="preserve" transform="matrix(1 0 -0 1 0 792)" font-size="9.9626" font-family="URWPalladioL" font-style="italic"><tspan y="-392.65199" x="60.939039 65.55172">ba</tspan></text>
<text xml:space="preserve" transform="matrix(1 0 -0 1 0 792)" font-size="9.9626" font-family="URWPalladioL"><tspan y="-392.65199" x="69.97404">;</tspan></text>
<text xml:space="preserve" transform="matrix(1 0 -0 1 0 792)" font-size="9.9626" font-family="URWPalladioL" font-style="italic"><tspan y="-392.65199" x="74.12604 78.54943 83.16212 87.58551">abab</tspan></text>
<text xml:space="preserve" transform="matrix(1 0 -0 1 0 792)" font-size="9.9626" font-family="URWPalladioL"><tspan y="-392.65199" x="92.19704">;</tspan></text>
<text xml:space="preserve" transform="matrix(1 0 -0 1 0 792)" font-size="9.9626" font-family="URWPalladioL" font-style="italic"><tspan y="-392.65199" x="96.34804 100.77143 105.38412 109.9968">abba</tspan></text>
<text xml:space="preserve" transform="matrix(1 0 -0 1 0 792)" font-size="9.9626" font-family="URWPalladioL"><tspan y="-392.65199" x="114.42004">;</tspan></text>
<text xml:space="preserve" transform="matrix(1 0 -0 1 0 792)" font-size="9.9626" font-family="URWPalladioL" font-style="italic"><tspan y="-392.65199" x="118.57104 123.18372 127.60712 132.03052">baab</tspan></text>
<text xml:space="preserve" transform="matrix(1 0 -0 1 0 792)" font-size="9.9626" font-family="URWPalladioL"><tspan y="-392.65199" x="136.64304">;</tspan></text>
<text xml:space="preserve" transform="matrix(1 0 -0 1 0 792)" font-size="9.9626" font-family="URWPalladioL" font-style="italic"><tspan y="-392.65199" x="140.79404 145.40673 149.83013 154.44281">baba</tspan></text>
<text xml:space="preserve" transform="matrix(1 0 -0 1 0 792)" font-size="9.9626" font-family="URWPalladioL"><tspan y="-392.65199" x="158.86605">;</tspan></text>
<text xml:space="preserve" transform="matrix(1 0 -0 1 0 792)" font-size="9.9626" font-family="Rpxmi"><tspan y="-392.65199" x="163.01705 167.17145 171.31589">...</tspan></text>
<text xml:space="preserve" transform="matrix(1 0 -0 1 0 792)" font-size="9.9626" font-family="Pxsy"><tspan y="-392.65199" x="175.47005">}</tspan></text>
<text xml:space="preserve" transform="matrix(1 0 -0 1 0 792)" font-size="9.9626" font-family="URWPalladioL"><tspan y="-392.65199" x="178.78804">;</tspan></text>
<text xml:space="preserve" transform="matrix(1 0 -0 1 0 792)" font-size="9.9626" font-family="URWPalladioL" font-style="italic"><tspan y="-380.697" x="27.741044">L</tspan></text>
<text xml:space="preserve" transform="matrix(1 0 -0 1 0 792)" font-size="9.9626" font-family="Rpxr"><tspan y="-380.697" x="36.048044">=</tspan></text>
<text xml:space="preserve" transform="matrix(1 0 -0 1 0 792)" font-size="9.9626" font-family="Pxsy"><tspan y="-380.697" x="45.48004">{</tspan></text>
<text xml:space="preserve" transform="matrix(1 0 -0 1 0 792)" font-size="9.9626" font-family="URWPalladioL" font-style="italic"><tspan y="-380.697" x="48.798044">a</tspan></text>
<text xml:space="preserve" transform="matrix(1 0 -0 1 0 792)" font-size="6.9738" font-family="URWPalladioL"><tspan y="-379.203" x="53.221044">1</tspan></text>
<text xml:space="preserve" transform="matrix(1 0 -0 1 0 792)" font-size="9.9626" font-family="URWPalladioL" font-style="italic"><tspan y="-380.697" x="57.206045">a</tspan></text>
<text xml:space="preserve" transform="matrix(1 0 -0 1 0 792)" font-size="6.9738" font-family="URWPalladioL"><tspan y="-379.203" x="61.629045">2</tspan></text>
<text xml:space="preserve" transform="matrix(1 0 -0 1 0 792)" font-size="9.9626" font-family="Rpxmi"><tspan y="-380.697" x="67.27504 71.42944 75.57388">...</tspan></text>
<text xml:space="preserve" transform="matrix(1 0 -0 1 0 792)" font-size="9.9626" font-family="URWPalladioL" font-style="italic"><tspan y="-380.697" x="79.72804">a</tspan></text>
<text xml:space="preserve" transform="matrix(1 0 -0 1 0 792)" font-size="6.9738" font-family="URWPalladioL" font-style="italic"><tspan y="-379.203" x="84.15104">n</tspan></text>
<text xml:space="preserve" transform="matrix(1 0 -0 1 0 792)" font-size="9.9626" font-family="Pxsy"><tspan y="-380.697" x="91.115039">|</tspan></text>
<text xml:space="preserve" transform="matrix(1 0 -0 1 0 792)" font-size="9.9626" font-family="URWPalladioL" font-style="italic"><tspan y="-380.697" x="95.80604">a</tspan></text>
<text xml:space="preserve" transform="matrix(1 0 -0 1 0 792)" font-size="6.9738" font-family="URWPalladioL" font-style="italic"><tspan y="-379.203" x="100.229038">i</tspan></text>
<text xml:space="preserve" transform="matrix(1 0 -0 1 0 792)" font-size="9.9626" font-family="Pxsy"><tspan y="-380.697" x="105.43304 113.82154">&#x2208;{</tspan></text>
<text xml:space="preserve" transform="matrix(1 0 -0 1 0 792)" font-size="9.9626" font-family="URWPalladioL" font-style="italic"><tspan y="-380.697" x="117.13704 121.56043">ab</tspan></text>
<text xml:space="preserve" transform="matrix(1 0 -0 1 0 792)" font-size="9.9626" font-family="Rpxmi"><tspan y="-380.697" x="126.17304">,</tspan></text>
<text xml:space="preserve" transform="matrix(1 0 -0 1 0 792)" font-size="9.9626" font-family="URWPalladioL" font-style="italic"><tspan y="-380.697" x="130.32404 134.93672">ba</tspan></text>
<text xml:space="preserve" transform="matrix(1 0 -0 1 0 792)" font-size="9.9626" font-family="Pxsy"><tspan y="-380.697" x="139.36003 142.67758">}}</tspan></text>
<text xml:space="preserve" transform="matrix(1 0 -0 1 0 792)" font-size="9.9626" font-family="URWPalladioL"><tspan y="-380.697" x="145.99503">;</tspan></text>
<text xml:space="preserve" transform="matrix(1 0 -0 1 0 792)" font-size="9.9626" font-family="OpenSans" font-weight="bold"><tspan y="-352.802" x="27.741028 35.671258 41.180578 47.546678 53.434576 58.943895">&#x041e;&#x0442;&#x0432;&#x0435;&#x0442;:</tspan></text>
<text xml:space="preserve" transform="matrix(1 0 -0 1 0 792)" font-size="9.9626" font-family="SFRM1000"><tspan y="-334.869" x="63.598028 74.73621 78.611667 83.592967 88.574268 94.10351 100.200618 105.72986 110.71116 115.682498 121.7796 126.7609 132.29015 138.3773 145.84926 150.83055 156.91771 163.69228 169.7894 175.31864 179.19409">G({ab,ba},{S,A},P,S);</tspan><tspan y="-322.914" x="63.598028 70.3726">P:</tspan><tspan y="-310.959" x="81.526027">S</tspan></text>
<text xml:space="preserve" transform="matrix(1 0 -0 1 0 792)" font-size="9.9626" font-family="Pxsy"><tspan y="-310.959" x="90.38002">&#x21d2;</tspan></text>
<text xml:space="preserve" transform="matrix(1 0 -0 1 0 792)" font-size="9.9626" font-family="SFRM1000"><tspan y="-310.959" x="103.24902 114.03852 120.13563 130.92513 136.45436">A|AS;</tspan><tspan y="-299.00303" x="81.526027">A</tspan></text>
<text xml:space="preserve" transform="matrix(1 0 -0 1 0 792)" font-size="9.9626" font-family="Pxsy"><tspan y="-299.00303" x="92.316028">&#x21d2;</tspan></text>
<text xml:space="preserve" transform="matrix(1 0 -0 1 0 792)" font-size="9.9626" font-family="SFRM1000"><tspan y="-299.00303" x="105.18603 107.95563 112.93693 118.46617 124.553318 130.65042 133.42003 138.94927 143.93056 146.70017">&#x2019;ab&#x2019;|&#x2019;ba&#x2019;;</tspan></text>
<text xml:space="preserve" transform="matrix(1 0 -0 1 0 792)" font-size="9.9626" font-family="OpenSans"><tspan y="-273.101" x="14.412025 20.110634">5.</tspan></text>
<text xml:space="preserve" transform="matrix(1 0 -0 1 0 792)" font-size="9.9626" font-family="OpenSans"><tspan y="-273.101" x="27.741986 35.004724 41.022134 45.76433 50.416868 56.52394 62.54135 68.85764 73.51018 81.998317 88.105388 93.694408 97.9584 102.979549 108.66819 114.19743 120.304508 126.6208 131.64196 142.51114 146.77513 152.8822 158.4214 165.74391 173.06642 178.60562 183.25815 189.57444 194.74503 199.76618 204.78733 209.68892 214.85951 220.52823 226.84452 232.51323 238.05243 243.74108 249.3301 255.64638 260.29893 266.6152 271.63636 282.50556 286.76957 292.87666 298.41587 305.73838 313.06089 318.6001 323.25263 329.5689 334.7395 342.9188 350.25126 356.43803 362.5451 368.08433 373.75306 380.06935 385.758 391.2972 398.61973 404.936">&#x041f;&#x043e;&#x0441;&#x0442;&#x0440;&#x043e;&#x0438;&#x0442;&#x044c;&#x0440;&#x0435;&#x0433;&#x0443;&#x043b;&#x044f;&#x0440;&#x043d;&#x0443;&#x044e;&#x0433;&#x0440;&#x0430;&#x043c;&#x043c;&#x0430;&#x0442;&#x0438;&#x043a;&#x0443;,&#x044d;&#x043a;&#x0432;&#x0438;&#x0432;&#x0430;&#x043b;&#x0435;&#x043d;&#x0442;&#x043d;&#x0443;&#x044e;&#x0433;&#x0440;&#x0430;&#x043c;&#x043c;&#x0430;&#x0442;&#x0438;&#x043a;&#x0435;&#x0441;&#x043f;&#x0440;&#x0430;&#x0432;&#x0438;&#x043b;&#x0430;&#x043c;&#x0438;:</tspan></text>
<text xml:space="preserve" transform="matrix(1 0 -0 1 0 792)" font-size="9.9626" font-family="SFRM1000"><tspan y="-255.16802" x="63.598028">S</tspan></text>
<text xml:space="preserve" transform="matrix(1 0 -0 1 0 792)" font-size="9.9626" font-family="Pxsy"><tspan y="-255.16802" x="72.45103">&#x21d2;</tspan></text>
<text xml:space="preserve" transform="matrix(1 0 -0 1 0 792)" font-size="9.9626" font-family="SFRM1000"><tspan y="-255.16802" x="85.32103 96.11053 98.88013 101.64973 107.74683 115.21878">A&#x2019;.&#x2019;A;</tspan><tspan y="-243.21302" x="63.59803">A</tspan></text>
<text xml:space="preserve" transform="matrix(1 0 -0 1 0 792)" font-size="9.9626" font-family="Pxsy"><tspan y="-243.21302" x="74.38803">&#x21d2;</tspan></text>
<text xml:space="preserve" transform="matrix(1 0 -0 1 0 792)" font-size="9.9626" font-family="SFRM1000"><tspan y="-243.21302" x="87.257038 97.6281 103.725208 114.09627 121.56822">B|BA;</tspan><tspan y="-231.25702" x="63.598035">B</tspan></text>
<text xml:space="preserve" transform="matrix(1 0 -0 1 0 792)" font-size="9.9626" font-family="Pxsy"><tspan y="-231.25702" x="73.97304">&#x21d2;</tspan></text>
<text xml:space="preserve" transform="matrix(1 0 -0 1 0 792)" font-size="9.9626" font-family="SFRM1000"><tspan y="-231.25702" x="86.84204 89.61164 94.59294 100.680088 106.77719 109.54679 114.52809 117.29769">&#x2019;0&#x2019;|&#x2019;1&#x2019;;</tspan></text>
<text xml:space="preserve" transform="matrix(1 0 -0 1 0 792)" font-size="9.9626" font-family="OpenSans" font-weight="bold"><tspan y="-209.34003" x="27.74104 33.99755 39.88545 49.539209 55.427106 62.022348 69.19542 75.08331">&#x0420;&#x0435;&#x0448;&#x0435;&#x043d;&#x0438;&#x0435;:</tspan></text>
<text xml:space="preserve" transform="matrix(1 0 -0 1 0 792)" font-size="9.9626" font-family="URWPalladioL" font-style="italic"><tspan y="-190.41103" x="27.74104">L</tspan></text>
<text xml:space="preserve" transform="matrix(1 0 -0 1 0 792)" font-size="9.9626" font-family="Pxsy"><tspan y="-190.41103" x="36.04804 44.43655">&#x220b;{</tspan></text>
<text xml:space="preserve" transform="matrix(1 0 -0 1 0 792)" font-size="9.9626" font-family="URWPalladioL"><tspan y="-190.41103" x="47.752038">0</tspan></text>
<text xml:space="preserve" transform="matrix(1 0 -0 1 0 792)" font-size="9.9626" font-family="Rpxmi"><tspan y="-190.41103" x="52.733037">.</tspan></text>
<text xml:space="preserve" transform="matrix(1 0 -0 1 0 792)" font-size="9.9626" font-family="URWPalladioL"><tspan y="-190.41103" x="55.224039 60.205339 64.35974">0;0</tspan></text>
<text xml:space="preserve" transform="matrix(1 0 -0 1 0 792)" font-size="9.9626" font-family="Rpxmi"><tspan y="-190.41103" x="69.337039">.</tspan></text>
<text xml:space="preserve" transform="matrix(1 0 -0 1 0 792)" font-size="9.9626" font-family="URWPalladioL"><tspan y="-190.41103" x="71.82803 76.80933 80.96374">1;1</tspan></text>
<text xml:space="preserve" transform="matrix(1 0 -0 1 0 792)" font-size="9.9626" font-family="Rpxmi"><tspan y="-190.41103" x="85.94203">.</tspan></text>
<text xml:space="preserve" transform="matrix(1 0 -0 1 0 792)" font-size="9.9626" font-family="URWPalladioL"><tspan y="-190.41103" x="88.43203 93.41333 97.56773">0;1</tspan></text>
<text xml:space="preserve" transform="matrix(1 0 -0 1 0 792)" font-size="9.9626" font-family="Rpxmi"><tspan y="-190.41103" x="102.54603">.</tspan></text>
<text xml:space="preserve" transform="matrix(1 0 -0 1 0 792)" font-size="9.9626" font-family="URWPalladioL"><tspan y="-190.41103" x="105.037029 110.018329 114.17273 119.15403">1;00</tspan></text>
<text xml:space="preserve" transform="matrix(1 0 -0 1 0 792)" font-size="9.9626" font-family="Rpxmi"><tspan y="-190.41103" x="124.13203">.</tspan></text>
<text xml:space="preserve" transform="matrix(1 0 -0 1 0 792)" font-size="9.9626" font-family="URWPalladioL"><tspan y="-190.41103" x="126.622028 131.60332 135.75772">0;0</tspan></text>
<text xml:space="preserve" transform="matrix(1 0 -0 1 0 792)" font-size="9.9626" font-family="Rpxmi"><tspan y="-190.41103" x="140.73603">.</tspan></text>
<text xml:space="preserve" transform="matrix(1 0 -0 1 0 792)" font-size="9.9626" font-family="URWPalladioL"><tspan y="-190.41103" x="143.22702 148.20832 153.1896 157.34401 162.3253">00;10</tspan></text>
<text xml:space="preserve" transform="matrix(1 0 -0 1 0 792)" font-size="9.9626" font-family="Rpxmi"><tspan y="-190.41103" x="167.30303">.</tspan></text>
<text xml:space="preserve" transform="matrix(1 0 -0 1 0 792)" font-size="9.9626" font-family="URWPalladioL"><tspan y="-190.41103" x="169.79402 174.77532 178.92972 183.91101">0;11</tspan></text>
<text xml:space="preserve" transform="matrix(1 0 -0 1 0 792)" font-size="9.9626" font-family="Rpxmi"><tspan y="-190.41103" x="188.88903">.</tspan></text>
<text xml:space="preserve" transform="matrix(1 0 -0 1 0 792)" font-size="9.9626" font-family="URWPalladioL"><tspan y="-190.41103" x="191.37903 196.36032">0;</tspan></text>
<text xml:space="preserve" transform="matrix(1 0 -0 1 0 792)" font-size="9.9626" font-family="Rpxmi"><tspan y="-190.41103" x="200.51203 204.66643 208.81087">...</tspan></text>
<text xml:space="preserve" transform="matrix(1 0 -0 1 0 792)" font-size="9.9626" font-family="Pxsy"><tspan y="-190.41103" x="212.96503">}</tspan></text>
<text xml:space="preserve" transform="matrix(1 0 -0 1 0 792)" font-size="9.9626" font-family="URWPalladioL"><tspan y="-190.41103" x="216.28302">;</tspan></text>
<text xml:space="preserve" transform="matrix(1 0 -0 1 0 792)" font-size="9.9626" font-family="URWPalladioL" font-style="italic"><tspan y="-178.45503" x="27.741013">L</tspan></text>
<text xml:space="preserve" transform="matrix(1 0 -0 1 0 792)" font-size="9.9626" font-family="Rpxr"><tspan y="-178.45503" x="36.04801">=</tspan></text>
<text xml:space="preserve" transform="matrix(1 0 -0 1 0 792)" font-size="9.9626" font-family="Pxsy"><tspan y="-178.45503" x="45.48001">{</tspan></text>
<text xml:space="preserve" transform="matrix(1 0 -0 1 0 792)" font-size="9.9626" font-family="URWPalladioL" font-style="italic"><tspan y="-178.45503" x="48.79801">a</tspan></text>
<text xml:space="preserve" transform="matrix(1 0 -0 1 0 792)" font-size="6.9738" font-family="URWPalladioL"><tspan y="-176.96103" x="53.221014">1</tspan></text>
<text xml:space="preserve" transform="matrix(1 0 -0 1 0 792)" font-size="9.9626" font-family="URWPalladioL" font-style="italic"><tspan y="-178.45503" x="57.206014">a</tspan></text>
<text xml:space="preserve" transform="matrix(1 0 -0 1 0 792)" font-size="6.9738" font-family="URWPalladioL"><tspan y="-176.96103" x="61.629014">2</tspan></text>
<text xml:space="preserve" transform="matrix(1 0 -0 1 0 792)" font-size="9.9626" font-family="Rpxmi"><tspan y="-178.45503" x="67.27501 71.42941 75.57385">...</tspan></text>
<text xml:space="preserve" transform="matrix(1 0 -0 1 0 792)" font-size="9.9626" font-family="URWPalladioL" font-style="italic"><tspan y="-178.45503" x="79.72801">a</tspan></text>
<text xml:space="preserve" transform="matrix(1 0 -0 1 0 792)" font-size="6.9738" font-family="URWPalladioL" font-style="italic"><tspan y="-176.96103" x="84.15101">n</tspan></text>
<text xml:space="preserve" transform="matrix(1 0 -0 1 0 792)" font-size="9.9626" font-family="Rpxmi"><tspan y="-178.45503" x="88.52701">.</tspan></text>
<text xml:space="preserve" transform="matrix(1 0 -0 1 0 792)" font-size="9.9626" font-family="URWPalladioL" font-style="italic"><tspan y="-178.45503" x="91.018009">a</tspan></text>
<text xml:space="preserve" transform="matrix(1 0 -0 1 0 792)" font-size="6.9738" font-family="URWPalladioL" font-style="italic"><tspan y="-176.96103" x="95.441">n</tspan></text>
<text xml:space="preserve" transform="matrix(1 0 -0 1 0 792)" font-size="6.9738" font-family="Rpxr"><tspan y="-176.96103" x="99.318">+</tspan></text>
<text xml:space="preserve" transform="matrix(1 0 -0 1 0 792)" font-size="6.9738" font-family="URWPalladioL"><tspan y="-176.96103" x="103.984">1</tspan></text>
<text xml:space="preserve" transform="matrix(1 0 -0 1 0 792)" font-size="9.9626" font-family="URWPalladioL" font-style="italic"><tspan y="-178.45503" x="107.969">a</tspan></text>
<text xml:space="preserve" transform="matrix(1 0 -0 1 0 792)" font-size="6.9738" font-family="URWPalladioL" font-style="italic"><tspan y="-176.96103" x="112.392">n</tspan></text>
<text xml:space="preserve" transform="matrix(1 0 -0 1 0 792)" font-size="6.9738" font-family="Rpxr"><tspan y="-176.96103" x="116.27">+</tspan></text>
<text xml:space="preserve" transform="matrix(1 0 -0 1 0 792)" font-size="6.9738" font-family="URWPalladioL"><tspan y="-176.96103" x="120.935">2</tspan></text>
<text xml:space="preserve" transform="matrix(1 0 -0 1 0 792)" font-size="9.9626" font-family="Rpxmi"><tspan y="-178.45503" x="126.58099 130.7354 134.87984">...</tspan></text>
<text xml:space="preserve" transform="matrix(1 0 -0 1 0 792)" font-size="9.9626" font-family="URWPalladioL" font-style="italic"><tspan y="-178.45503" x="139.034">a</tspan></text>
<text xml:space="preserve" transform="matrix(1 0 -0 1 0 792)" font-size="6.9738" font-family="URWPalladioL" font-style="italic"><tspan y="-176.96103" x="143.457">n</tspan></text>
<text xml:space="preserve" transform="matrix(1 0 -0 1 0 792)" font-size="6.9738" font-family="Rpxr"><tspan y="-176.96103" x="147.335">+</tspan></text>
<text xml:space="preserve" transform="matrix(1 0 -0 1 0 792)" font-size="6.9738" font-family="URWPalladioL" font-style="italic"><tspan y="-176.96103" x="152">m</tspan></text>
<text xml:space="preserve" transform="matrix(1 0 -0 1 0 792)" font-size="9.9626" font-family="Pxsy"><tspan y="-178.45503" x="160.512">|</tspan></text>
<text xml:space="preserve" transform="matrix(1 0 -0 1 0 792)" font-size="9.9626" font-family="URWPalladioL" font-style="italic"><tspan y="-178.45503" x="165.20299">a</tspan></text>
<text xml:space="preserve" transform="matrix(1 0 -0 1 0 792)" font-size="6.9738" font-family="URWPalladioL" font-style="italic"><tspan y="-176.96103" x="169.62599">i</tspan></text>
<text xml:space="preserve" transform="matrix(1 0 -0 1 0 792)" font-size="9.9626" font-family="Pxsy"><tspan y="-178.45503" x="174.82999 183.2185">&#x2208;{</tspan></text>
<text xml:space="preserve" transform="matrix(1 0 -0 1 0 792)" font-size="9.9626" font-family="URWPalladioL"><tspan y="-178.45503" x="186.53398">0</tspan></text>
<text xml:space="preserve" transform="matrix(1 0 -0 1 0 792)" font-size="9.9626" font-family="Rpxmi"><tspan y="-178.45503" x="191.51499">,</tspan></text>
<text xml:space="preserve" transform="matrix(1 0 -0 1 0 792)" font-size="9.9626" font-family="URWPalladioL"><tspan y="-178.45503" x="195.66599">1</tspan></text>
<text xml:space="preserve" transform="matrix(1 0 -0 1 0 792)" font-size="9.9626" font-family="Pxsy"><tspan y="-178.45503" x="200.64798">}</tspan></text>
<text xml:space="preserve" transform="matrix(1 0 -0 1 0 792)" font-size="9.9626" font-family="URWPalladioL"><tspan y="-178.45503" x="203.96498">;</tspan></text>
<text xml:space="preserve" transform="matrix(1 0 -0 1 0 792)" font-size="9.9626" font-family="URWPalladioL" font-style="italic"><tspan y="-178.45503" x="208.11598">n</tspan></text>
<text xml:space="preserve" transform="matrix(1 0 -0 1 0 792)" font-size="9.9626" font-family="Rpxmi"><tspan y="-178.45503" x="213.65499">,</tspan></text>
<text xml:space="preserve" transform="matrix(1 0 -0 1 0 792)" font-size="9.9626" font-family="URWPalladioL" font-style="italic"><tspan y="-178.45503" x="217.80599">m</tspan></text>
<text xml:space="preserve" transform="matrix(1 0 -0 1 0 792)" font-size="9.9626" font-family="Rpxmi"><tspan y="-178.45503" x="228.32399">&#x003e;</tspan></text>
<text xml:space="preserve" transform="matrix(1 0 -0 1 0 792)" font-size="9.9626" font-family="URWPalladioL"><tspan y="-178.45503" x="237.75699">0</tspan></text>
<text xml:space="preserve" transform="matrix(1 0 -0 1 0 792)" font-size="9.9626" font-family="Pxsy"><tspan y="-178.45503" x="242.73799">}</tspan></text>
<text xml:space="preserve" transform="matrix(1 0 -0 1 0 792)" font-size="9.9626" font-family="URWPalladioL"><tspan y="-178.45503" x="246.05599">;</tspan></text>
<text xml:space="preserve" transform="matrix(1 0 -0 1 0 792)" font-size="9.9626" font-family="OpenSans" font-weight="bold"><tspan y="-150.56003" x="27.740983 35.67121 41.18053 47.54663 53.43453 58.943849">&#x041e;&#x0442;&#x0432;&#x0435;&#x0442;:</tspan></text>
<text xml:space="preserve" transform="matrix(1 0 -0 1 0 792)" font-size="9.9626" font-family="SFRM1000"><tspan y="-132.62703" x="63.59798 74.73617 78.61162 83.59292 88.57422 94.66136 99.64266 104.62396 110.72107 115.70237 121.23161 127.318759 134.79071 140.87787 147.9314 152.91269 158.99985 165.77442 171.87154 177.40077 181.27623">G({0,1},{S,A,B},P,S);</tspan><tspan y="-120.67203" x="63.59798 70.37255">P:</tspan><tspan y="-108.717029" x="81.52598">S</tspan></text>
<text xml:space="preserve" transform="matrix(1 0 -0 1 0 792)" font-size="9.9626" font-family="Pxsy"><tspan y="-108.717029" x="90.379978">&#x21d2;</tspan></text>
<text xml:space="preserve" transform="matrix(1 0 -0 1 0 792)" font-size="9.9626" font-family="SFRM1000"><tspan y="-108.717029" x="103.24898 106.01858 110.99988 117.08702 127.88648 133.97364 136.74324 141.72454 147.81169 155.28365">&#x2019;0&#x2019;A|&#x2019;1&#x2019;A;</tspan><tspan y="-96.762027" x="81.52598">A</tspan></text>
<text xml:space="preserve" transform="matrix(1 0 -0 1 0 792)" font-size="9.9626" font-family="Pxsy"><tspan y="-96.762027" x="92.31598">&#x21d2;</tspan></text>
<text xml:space="preserve" transform="matrix(1 0 -0 1 0 792)" font-size="9.9626" font-family="SFRM1000"><tspan y="-96.762027" x="105.18598 107.95558 112.93688 119.024028 129.81352 135.91065 138.68025 143.66155 149.7487 160.53821 166.63533 169.40494 172.17455 178.2617 185.31523">&#x2019;0&#x2019;A|&#x2019;1&#x2019;A|&#x2019;.&#x2019;B;</tspan><tspan y="-84.80702" x="81.525989">B</tspan></text>
<text xml:space="preserve" transform="matrix(1 0 -0 1 0 792)" font-size="9.9626" font-family="Pxsy"><tspan y="-84.80702" x="91.900989">&#x21d2;</tspan></text>
<text xml:space="preserve" transform="matrix(1 0 -0 1 0 792)" font-size="9.9626" font-family="SFRM1000"><tspan y="-84.80702" x="104.77099 107.54059 112.52189 118.60903 129.12955 135.2167 137.98632 142.9676 149.05477 159.5653 165.66243 168.43204 173.41333 179.50049 185.58765 188.35726 193.33855 196.10816">&#x2019;0&#x2019;C|&#x2019;1&#x2019;C|&#x2019;0&#x2019;|&#x2019;1&#x2019;;</tspan></text>
</g>
</svg>
