<?xml version="1.0" encoding="UTF-8" standalone="no"?>
<svg xmlns="http://www.w3.org/2000/svg" xmlns:xlink="http://www.w3.org/1999/xlink" contentStyleType="text/css" height="1600px" preserveAspectRatio="none" style="width:784px;height:1600px;background:#FFFFFF;" version="1.1" viewBox="0 0 784 1600" width="784px" zoomAndPan="magnify"><defs/><g><ellipse cx="394.5" cy="20" fill="#222222" rx="10" ry="10" style="stroke:#222222;stroke-width:1.0;"/><rect fill="none" height="1507.8823" style="stroke:#000000;stroke-width:1.5;" width="762.5" x="11" y="40"/><path d="M59,40 L59,49.2969 L49,59.2969 L11,59.2969 " fill="none" style="stroke:#000000;stroke-width:1.5;"/><text fill="#000000" font-family="sans-serif" font-size="14" lengthAdjust="spacing" textLength="38" x="14" y="53.9951">Array</text><rect fill="#F1F1F1" height="47.9375" rx="12.5" ry="12.5" style="stroke:#181818;stroke-width:0.5;" width="165" x="312" y="76.2969"/><line style="stroke:#181818;stroke-width:1.0;" x1="312" x2="322" y1="93.2813" y2="93.2813"/><line style="stroke:#181818;stroke-width:1.0;" x1="312" x2="322" y1="95.2813" y2="95.2813"/><text fill="#000000" font-family="sans-serif" font-size="12" font-weight="bold" lengthAdjust="spacing" textLength="145" x="322" y="96.9355">Positive Lookbehind</text><line style="stroke:#181818;stroke-width:1.0;" x1="467" x2="477" y1="93.2813" y2="93.2813"/><line style="stroke:#181818;stroke-width:1.0;" x1="467" x2="477" y1="95.2813" y2="95.2813"/><text fill="#000000" font-family="sans-serif" font-size="12" lengthAdjust="spacing" textLength="19" x="386" y="111.4043">`{`</text><rect fill="none" height="1314.5" style="stroke:#000000;stroke-width:1.5;" width="742.5" x="21" y="134.2344"/><path d="M130,134.2344 L130,143.5313 L120,153.5313 L21,153.5313 " fill="none" style="stroke:#000000;stroke-width:1.5;"/><text fill="#000000" font-family="sans-serif" font-size="14" lengthAdjust="spacing" textLength="99" x="24" y="148.2295">ArrayElement</text><rect fill="none" height="1188.2031" style="stroke:#000000;stroke-width:1.5;" width="704.5" x="31" y="204.5313"/><path d="M98,204.5313 L98,213.8281 L88,223.8281 L31,223.8281 " fill="none" style="stroke:#000000;stroke-width:1.5;"/><text fill="#000000" font-family="sans-serif" font-size="14" lengthAdjust="spacing" textLength="57" x="34" y="218.5264">Number</text><line style="stroke:#181818;stroke-width:1.5;" x1="170" x2="619.5" y1="240.8281" y2="240.8281"/><rect fill="none" height="409.3125" style="stroke:#000000;stroke-width:1.5;" width="253" x="46" y="338.1172"/><path d="M109,338.1172 L109,347.4141 L99,357.4141 L46,357.4141 " fill="none" style="stroke:#000000;stroke-width:1.5;"/><text fill="#000000" font-family="sans-serif" font-size="14" lengthAdjust="spacing" textLength="53" x="49" y="352.1123">Integer</text><line style="stroke:#181818;stroke-width:1.5;" x1="124" x2="231.5" y1="374.4141" y2="374.4141"/><rect fill="#F1F1F1" height="33.9688" rx="12.5" ry="12.5" style="stroke:#181818;stroke-width:0.5;" width="31" x="108.5" y="394.4141"/><text fill="#000000" font-family="sans-serif" font-size="12" lengthAdjust="spacing" textLength="11" x="118.5" y="415.5527">'-'</text><rect fill="#F1F1F1" height="33.9688" rx="12.5" ry="12.5" style="stroke:#181818;stroke-width:0.5;" width="36" x="167.5" y="394.4141"/><text fill="#000000" font-family="sans-serif" font-size="12" lengthAdjust="spacing" textLength="16" x="177.5" y="415.5527">'+'</text><line style="stroke:#181818;stroke-width:1.5;" x1="124" x2="231.5" y1="448.3828" y2="448.3828"/><line style="stroke:#181818;stroke-width:1.5;" x1="75" x2="201" y1="484.8828" y2="484.8828"/><rect fill="#F1F1F1" height="33.9688" rx="12.5" ry="12.5" style="stroke:#181818;stroke-width:0.5;" width="34" x="58" y="589.1719"/><text fill="#000000" font-family="sans-serif" font-size="12" lengthAdjust="spacing" textLength="14" x="68" y="610.3105">'0'</text><rect fill="#F1F1F1" height="47.9375" rx="12.5" ry="12.5" style="stroke:#181818;stroke-width:0.5;" width="69" x="166.5" y="506.3828"/><line style="stroke:#181818;stroke-width:1.0;" x1="166.5" x2="176.5" y1="523.3672" y2="523.3672"/><line style="stroke:#181818;stroke-width:1.0;" x1="166.5" x2="176.5" y1="525.3672" y2="525.3672"/><text fill="#000000" font-family="sans-serif" font-size="12" font-weight="bold" lengthAdjust="spacing" textLength="49" x="176.5" y="527.0215">One of</text><line style="stroke:#181818;stroke-width:1.0;" x1="225.5" x2="235.5" y1="523.3672" y2="523.3672"/><line style="stroke:#181818;stroke-width:1.0;" x1="225.5" x2="235.5" y1="525.3672" y2="525.3672"/><text fill="#000000" font-family="sans-serif" font-size="12" lengthAdjust="spacing" textLength="40" x="180.5" y="541.4902">'1' - '9'</text><line style="stroke:#181818;stroke-width:1.5;" x1="193" x2="262.5" y1="589.3203" y2="589.3203"/><polygon fill="#F1F1F1" points="170,610.8203,216,610.8203,228,623.625,216,636.4297,170,636.4297,158,623.625,170,610.8203" style="stroke:#181818;stroke-width:0.5;"/><line style="stroke:#181818;stroke-width:1.0;" x1="170" x2="170" y1="617.2227" y2="617.2227"/><line style="stroke:#181818;stroke-width:1.0;" x1="170" x2="170" y1="619.2227" y2="619.2227"/><text fill="#000000" font-family="sans-serif" font-size="11" font-weight="bold" lengthAdjust="spacing" textLength="46" x="170" y="620.5308">One of</text><line style="stroke:#181818;stroke-width:1.0;" x1="216" x2="216" y1="617.2227" y2="617.2227"/><line style="stroke:#181818;stroke-width:1.0;" x1="216" x2="216" y1="619.2227" y2="619.2227"/><text fill="#000000" font-family="sans-serif" font-size="11" lengthAdjust="spacing" textLength="38" x="174" y="633.8354">'0' - '9'</text><line style="stroke:#181818;stroke-width:1.5;" x1="193" x2="262.5" y1="704.4297" y2="704.4297"/><line style="stroke:#181818;stroke-width:1.5;" x1="75" x2="201" y1="725.9297" y2="725.9297"/><rect fill="none" height="198.875" style="stroke:#000000;stroke-width:1.5;" width="135" x="327" y="442.5859"/><path d="M400,442.5859 L400,451.8828 L390,461.8828 L327,461.8828 " fill="none" style="stroke:#000000;stroke-width:1.5;"/><text fill="#000000" font-family="sans-serif" font-size="14" lengthAdjust="spacing" textLength="63" x="330" y="456.5811">Partition</text><rect fill="#F1F1F1" height="33.9688" rx="12.5" ry="12.5" style="stroke:#181818;stroke-width:0.5;" width="29" x="381.5" y="478.8828"/><text fill="#000000" font-family="sans-serif" font-size="12" lengthAdjust="spacing" textLength="9" x="391.5" y="500.0215">'.'</text><polygon fill="#F1F1F1" points="373,547.8516,419,547.8516,431,560.6563,419,573.4609,373,573.4609,361,560.6563,373,547.8516" style="stroke:#181818;stroke-width:0.5;"/><line style="stroke:#181818;stroke-width:1.0;" x1="373" x2="373" y1="554.2539" y2="554.2539"/><line style="stroke:#181818;stroke-width:1.0;" x1="373" x2="373" y1="556.2539" y2="556.2539"/><text fill="#000000" font-family="sans-serif" font-size="11" font-weight="bold" lengthAdjust="spacing" textLength="46" x="373" y="557.562">One of</text><line style="stroke:#181818;stroke-width:1.0;" x1="419" x2="419" y1="554.2539" y2="554.2539"/><line style="stroke:#181818;stroke-width:1.0;" x1="419" x2="419" y1="556.2539" y2="556.2539"/><text fill="#000000" font-family="sans-serif" font-size="11" lengthAdjust="spacing" textLength="38" x="377" y="570.8667">'0' - '9'</text><rect fill="none" height="572.9883" style="stroke:#000000;stroke-width:1.5;" width="233.5" x="490" y="250.8281"/><path d="M536,250.8281 L536,260.125 L526,270.125 L490,270.125 " fill="none" style="stroke:#000000;stroke-width:1.5;"/><text fill="#000000" font-family="sans-serif" font-size="14" lengthAdjust="spacing" textLength="36" x="493" y="264.8232">Float</text><line style="stroke:#181818;stroke-width:1.5;" x1="573.5" x2="681" y1="287.125" y2="287.125"/><rect fill="#F1F1F1" height="33.9688" rx="12.5" ry="12.5" style="stroke:#181818;stroke-width:0.5;" width="31" x="558" y="307.125"/><text fill="#000000" font-family="sans-serif" font-size="12" lengthAdjust="spacing" textLength="11" x="568" y="328.2637">'-'</text><rect fill="#F1F1F1" height="33.9688" rx="12.5" ry="12.5" style="stroke:#181818;stroke-width:0.5;" width="36" x="617" y="307.125"/><text fill="#000000" font-family="sans-serif" font-size="12" lengthAdjust="spacing" textLength="16" x="627" y="328.2637">'+'</text><line style="stroke:#181818;stroke-width:1.5;" x1="573.5" x2="681" y1="361.0938" y2="361.0938"/><line style="stroke:#181818;stroke-width:1.5;" x1="531" x2="650.5" y1="396.0938" y2="396.0938"/><rect fill="#F1F1F1" height="33.9688" rx="12.5" ry="12.5" style="stroke:#181818;stroke-width:0.5;" width="34" x="514" y="500.3828"/><text fill="#000000" font-family="sans-serif" font-size="12" lengthAdjust="spacing" textLength="14" x="524" y="521.5215">'0'</text><rect fill="#F1F1F1" height="47.9375" rx="12.5" ry="12.5" style="stroke:#181818;stroke-width:0.5;" width="69" x="616" y="417.5938"/><line style="stroke:#181818;stroke-width:1.0;" x1="616" x2="626" y1="434.5781" y2="434.5781"/><line style="stroke:#181818;stroke-width:1.0;" x1="616" x2="626" y1="436.5781" y2="436.5781"/><text fill="#000000" font-family="sans-serif" font-size="12" font-weight="bold" lengthAdjust="spacing" textLength="49" x="626" y="438.2324">One of</text><line style="stroke:#181818;stroke-width:1.0;" x1="675" x2="685" y1="434.5781" y2="434.5781"/><line style="stroke:#181818;stroke-width:1.0;" x1="675" x2="685" y1="436.5781" y2="436.5781"/><text fill="#000000" font-family="sans-serif" font-size="12" lengthAdjust="spacing" textLength="40" x="630" y="452.7012">'1' - '9'</text><line style="stroke:#181818;stroke-width:1.5;" x1="642.5" x2="707.5" y1="500.5313" y2="500.5313"/><polygon fill="#F1F1F1" points="619.5,522.0313,665.5,522.0313,677.5,534.8359,665.5,547.6406,619.5,547.6406,607.5,534.8359,619.5,522.0313" style="stroke:#181818;stroke-width:0.5;"/><line style="stroke:#181818;stroke-width:1.0;" x1="619.5" x2="619.5" y1="528.4336" y2="528.4336"/><line style="stroke:#181818;stroke-width:1.0;" x1="619.5" x2="619.5" y1="530.4336" y2="530.4336"/><text fill="#000000" font-family="sans-serif" font-size="11" font-weight="bold" lengthAdjust="spacing" textLength="46" x="619.5" y="531.7417">One of</text><line style="stroke:#181818;stroke-width:1.0;" x1="665.5" x2="665.5" y1="528.4336" y2="528.4336"/><line style="stroke:#181818;stroke-width:1.0;" x1="665.5" x2="665.5" y1="530.4336" y2="530.4336"/><text fill="#000000" font-family="sans-serif" font-size="11" lengthAdjust="spacing" textLength="38" x="623.5" y="545.0464">'0' - '9'</text><line style="stroke:#181818;stroke-width:1.5;" x1="642.5" x2="707.5" y1="615.6406" y2="615.6406"/><line style="stroke:#181818;stroke-width:1.5;" x1="531" x2="650.5" y1="637.1406" y2="637.1406"/><rect fill="#F1F1F1" height="33.9688" rx="12.5" ry="12.5" style="stroke:#181818;stroke-width:0.5;" width="29" x="605" y="673.6406"/><text fill="#000000" font-family="sans-serif" font-size="12" lengthAdjust="spacing" textLength="9" x="615" y="694.7793">'.'</text><polygon fill="#F1F1F1" points="596.5,742.6094,642.5,742.6094,654.5,755.4141,642.5,768.2188,596.5,768.2188,584.5,755.4141,596.5,742.6094" style="stroke:#181818;stroke-width:0.5;"/><line style="stroke:#181818;stroke-width:1.0;" x1="596.5" x2="596.5" y1="749.0117" y2="749.0117"/><line style="stroke:#181818;stroke-width:1.0;" x1="596.5" x2="596.5" y1="751.0117" y2="751.0117"/><text fill="#000000" font-family="sans-serif" font-size="11" font-weight="bold" lengthAdjust="spacing" textLength="46" x="596.5" y="752.3198">One of</text><line style="stroke:#181818;stroke-width:1.0;" x1="642.5" x2="642.5" y1="749.0117" y2="749.0117"/><line style="stroke:#181818;stroke-width:1.0;" x1="642.5" x2="642.5" y1="751.0117" y2="751.0117"/><text fill="#000000" font-family="sans-serif" font-size="11" lengthAdjust="spacing" textLength="38" x="600.5" y="765.6245">'0' - '9'</text><line style="stroke:#181818;stroke-width:1.5;" x1="170" x2="619.5" y1="843.8164" y2="843.8164"/><line style="stroke:#181818;stroke-width:1.5;" x1="380.5" x2="494" y1="873.0273" y2="873.0273"/><rect fill="none" height="305.4414" style="stroke:#000000;stroke-width:1.5;" width="171" x="295" y="883.0273"/><path d="M375,883.0273 L375,892.3242 L365,902.3242 L295,902.3242 " fill="none" style="stroke:#000000;stroke-width:1.5;"/><text fill="#000000" font-family="sans-serif" font-size="14" lengthAdjust="spacing" textLength="70" x="298" y="897.0225">Exponent</text><line style="stroke:#181818;stroke-width:1.5;" x1="350" x2="411.5" y1="919.3242" y2="919.3242"/><rect fill="#F1F1F1" height="33.9688" rx="12.5" ry="12.5" style="stroke:#181818;stroke-width:0.5;" width="34" x="333" y="939.3242"/><text fill="#000000" font-family="sans-serif" font-size="12" lengthAdjust="spacing" textLength="14" x="343" y="960.4629">'e'</text><rect fill="#F1F1F1" height="33.9688" rx="12.5" ry="12.5" style="stroke:#181818;stroke-width:0.5;" width="33" x="395" y="939.3242"/><text fill="#000000" font-family="sans-serif" font-size="12" lengthAdjust="spacing" textLength="13" x="405" y="960.4629">'E'</text><line style="stroke:#181818;stroke-width:1.5;" x1="350" x2="411.5" y1="993.293" y2="993.293"/><line style="stroke:#181818;stroke-width:1.5;" x1="334.5" x2="442" y1="1013.293" y2="1013.293"/><rect fill="#F1F1F1" height="33.9688" rx="12.5" ry="12.5" style="stroke:#181818;stroke-width:0.5;" width="31" x="319" y="1033.293"/><text fill="#000000" font-family="sans-serif" font-size="12" lengthAdjust="spacing" textLength="11" x="329" y="1054.4316">'-'</text><rect fill="#F1F1F1" height="33.9688" rx="12.5" ry="12.5" style="stroke:#181818;stroke-width:0.5;" width="36" x="378" y="1033.293"/><text fill="#000000" font-family="sans-serif" font-size="12" lengthAdjust="spacing" textLength="16" x="388" y="1054.4316">'+'</text><line style="stroke:#181818;stroke-width:1.5;" x1="334.5" x2="442" y1="1087.2617" y2="1087.2617"/><polygon fill="#F1F1F1" points="357.5,1107.2617,403.5,1107.2617,415.5,1120.0664,403.5,1132.8711,357.5,1132.8711,345.5,1120.0664,357.5,1107.2617" style="stroke:#181818;stroke-width:0.5;"/><line style="stroke:#181818;stroke-width:1.0;" x1="357.5" x2="357.5" y1="1113.6641" y2="1113.6641"/><line style="stroke:#181818;stroke-width:1.0;" x1="357.5" x2="357.5" y1="1115.6641" y2="1115.6641"/><text fill="#000000" font-family="sans-serif" font-size="11" font-weight="bold" lengthAdjust="spacing" textLength="46" x="357.5" y="1116.9722">One of</text><line style="stroke:#181818;stroke-width:1.0;" x1="403.5" x2="403.5" y1="1113.6641" y2="1113.6641"/><line style="stroke:#181818;stroke-width:1.0;" x1="403.5" x2="403.5" y1="1115.6641" y2="1115.6641"/><text fill="#000000" font-family="sans-serif" font-size="11" lengthAdjust="spacing" textLength="38" x="361.5" y="1130.2769">'0' - '9'</text><line style="stroke:#181818;stroke-width:1.5;" x1="380.5" x2="494" y1="1208.4688" y2="1208.4688"/><line style="stroke:#181818;stroke-width:1.5;" x1="380.5" x2="536.5" y1="1228.4688" y2="1228.4688"/><rect fill="none" height="122.2656" style="stroke:#000000;stroke-width:1.5;" width="254.5" x="254" y="1238.4688"/><path d="M305,1238.4688 L305,1247.7656 L295,1257.7656 L254,1257.7656 " fill="none" style="stroke:#000000;stroke-width:1.5;"/><text fill="#000000" font-family="sans-serif" font-size="14" lengthAdjust="spacing" textLength="41" x="257" y="1252.4639">Suffix</text><line style="stroke:#181818;stroke-width:1.5;" x1="291.5" x2="468.5" y1="1274.7656" y2="1274.7656"/><rect fill="#F1F1F1" height="33.9688" rx="12.5" ry="12.5" style="stroke:#181818;stroke-width:0.5;" width="30" x="276.5" y="1294.7656"/><text fill="#000000" font-family="sans-serif" font-size="12" lengthAdjust="spacing" textLength="10" x="286.5" y="1315.9043">'f'</text><rect fill="#F1F1F1" height="33.9688" rx="12.5" ry="12.5" style="stroke:#181818;stroke-width:0.5;" width="33" x="334.5" y="1294.7656"/><text fill="#000000" font-family="sans-serif" font-size="12" lengthAdjust="spacing" textLength="13" x="344.5" y="1315.9043">'F'</text><rect fill="#F1F1F1" height="33.9688" rx="12.5" ry="12.5" style="stroke:#181818;stroke-width:0.5;" width="29" x="395.5" y="1294.7656"/><text fill="#000000" font-family="sans-serif" font-size="12" lengthAdjust="spacing" textLength="9" x="405.5" y="1315.9043">'l'</text><rect fill="#F1F1F1" height="33.9688" rx="12.5" ry="12.5" style="stroke:#181818;stroke-width:0.5;" width="32" x="452.5" y="1294.7656"/><text fill="#000000" font-family="sans-serif" font-size="12" lengthAdjust="spacing" textLength="12" x="462.5" y="1315.9043">'L'</text><line style="stroke:#181818;stroke-width:1.5;" x1="291.5" x2="468.5" y1="1348.7344" y2="1348.7344"/><line style="stroke:#181818;stroke-width:1.5;" x1="380.5" x2="536.5" y1="1380.7344" y2="1380.7344"/><polygon fill="#F1F1F1" points="394.5,170.5313,406.5,182.5313,394.5,194.5313,382.5,182.5313,394.5,170.5313" style="stroke:#181818;stroke-width:0.5;"/><polygon fill="#F1F1F1" points="363.5,1412.7344,425.5,1412.7344,437.5,1424.7344,425.5,1436.7344,363.5,1436.7344,351.5,1424.7344,363.5,1412.7344" style="stroke:#181818;stroke-width:0.5;"/><text fill="#000000" font-family="sans-serif" font-size="11" lengthAdjust="spacing" textLength="62" x="363.5" y="1428.5425">Lookahead</text><text fill="#000000" font-family="sans-serif" font-size="11" lengthAdjust="spacing" textLength="9" x="437.5" y="1422.1401">';'</text><rect fill="#F1F1F1" height="47.9375" rx="12.5" ry="12.5" style="stroke:#181818;stroke-width:0.5;" width="161" x="314" y="1487.9448"/><line style="stroke:#181818;stroke-width:1.0;" x1="314" x2="324" y1="1504.9292" y2="1504.9292"/><line style="stroke:#181818;stroke-width:1.0;" x1="314" x2="324" y1="1506.9292" y2="1506.9292"/><text fill="#000000" font-family="sans-serif" font-size="12" font-weight="bold" lengthAdjust="spacing" textLength="141" x="324" y="1508.5835">Positive Lookahead</text><line style="stroke:#181818;stroke-width:1.0;" x1="465" x2="475" y1="1504.9292" y2="1504.9292"/><line style="stroke:#181818;stroke-width:1.0;" x1="465" x2="475" y1="1506.9292" y2="1506.9292"/><text fill="#000000" font-family="sans-serif" font-size="12" lengthAdjust="spacing" textLength="19" x="384" y="1523.0522">`}`</text><ellipse cx="394.5" cy="1578.8823" rx="11" ry="11" style="stroke:#222222;stroke-width:1.0;fill:none;"/><ellipse cx="394.5" cy="1578.8823" fill="#222222" rx="6" ry="6" style="stroke:#111111;stroke-width:1.0;"/><line style="stroke:#181818;stroke-width:1.0;" x1="124" x2="124" y1="375.9141" y2="394.4141"/><polygon fill="#181818" points="120,384.4141,124,394.4141,128,384.4141,124,388.4141" style="stroke:#181818;stroke-width:1.0;"/><line style="stroke:#181818;stroke-width:1.0;" x1="185.5" x2="185.5" y1="375.9141" y2="394.4141"/><polygon fill="#181818" points="181.5,384.4141,185.5,394.4141,189.5,384.4141,185.5,388.4141" style="stroke:#181818;stroke-width:1.0;"/><line style="stroke:#181818;stroke-width:1.0;" x1="231.5" x2="231.5" y1="375.9141" y2="448.3828"/><polygon fill="#181818" points="227.5,438.3828,231.5,448.3828,235.5,438.3828,231.5,442.3828" style="stroke:#181818;stroke-width:1.0;"/><line style="stroke:#181818;stroke-width:1.0;" x1="124" x2="124" y1="428.3828" y2="448.3828"/><polygon fill="#181818" points="120,438.3828,124,448.3828,128,438.3828,124,442.3828" style="stroke:#181818;stroke-width:1.0;"/><line style="stroke:#181818;stroke-width:1.0;" x1="185.5" x2="185.5" y1="428.3828" y2="448.3828"/><polygon fill="#181818" points="181.5,438.3828,185.5,448.3828,189.5,438.3828,185.5,442.3828" style="stroke:#181818;stroke-width:1.0;"/><line style="stroke:#181818;stroke-width:1.0;" x1="193" x2="193" y1="636.4297" y2="672.4297"/><line style="stroke:#181818;stroke-width:1.0;" x1="193" x2="240" y1="672.4297" y2="672.4297"/><polygon fill="#181818" points="236,658.0273,240,648.0273,244,658.0273,240,654.0273" style="stroke:#181818;stroke-width:1.0;"/><line style="stroke:#181818;stroke-width:1.0;" x1="240" x2="240" y1="623.625" y2="672.4297"/><line style="stroke:#181818;stroke-width:1.0;" x1="240" x2="228" y1="623.625" y2="623.625"/><polygon fill="#181818" points="238,619.625,228,623.625,238,627.625,234,623.625" style="stroke:#181818;stroke-width:1.0;"/><line style="stroke:#181818;stroke-width:1.0;" x1="158" x2="146" y1="623.625" y2="623.625"/><polygon fill="#181818" points="142,644.0273,146,654.0273,150,644.0273,146,648.0273" style="stroke:#181818;stroke-width:1.0;"/><line style="stroke:#181818;stroke-width:1.0;" x1="146" x2="146" y1="623.625" y2="684.4297"/><line style="stroke:#181818;stroke-width:1.0;" x1="146" x2="193" y1="684.4297" y2="684.4297"/><line style="stroke:#181818;stroke-width:1.0;" x1="193" x2="193" y1="684.4297" y2="704.4297"/><polygon fill="#181818" points="189,694.4297,193,704.4297,197,694.4297,193,698.4297" style="stroke:#181818;stroke-width:1.0;"/><line style="stroke:#181818;stroke-width:1.0;" x1="193" x2="193" y1="590.8203" y2="610.8203"/><polygon fill="#181818" points="189,600.8203,193,610.8203,197,600.8203,193,604.8203" style="stroke:#181818;stroke-width:1.0;"/><line style="stroke:#181818;stroke-width:1.0;" x1="262.5" x2="262.5" y1="590.8203" y2="704.4297"/><polygon fill="#181818" points="258.5,694.4297,262.5,704.4297,266.5,694.4297,262.5,698.4297" style="stroke:#181818;stroke-width:1.0;"/><line style="stroke:#181818;stroke-width:1.0;" x1="201" x2="201" y1="554.3203" y2="589.3203"/><polygon fill="#181818" points="197,579.3203,201,589.3203,205,579.3203,201,583.3203" style="stroke:#181818;stroke-width:1.0;"/><line style="stroke:#181818;stroke-width:1.0;" x1="75" x2="75" y1="486.3828" y2="589.1719"/><polygon fill="#181818" points="71,579.1719,75,589.1719,79,579.1719,75,583.1719" style="stroke:#181818;stroke-width:1.0;"/><line style="stroke:#181818;stroke-width:1.0;" x1="201" x2="201" y1="486.3828" y2="506.3828"/><polygon fill="#181818" points="197,496.3828,201,506.3828,205,496.3828,201,500.3828" style="stroke:#181818;stroke-width:1.0;"/><line style="stroke:#181818;stroke-width:1.0;" x1="75" x2="75" y1="623.1406" y2="725.9297"/><polygon fill="#181818" points="71,715.9297,75,725.9297,79,715.9297,75,719.9297" style="stroke:#181818;stroke-width:1.0;"/><line style="stroke:#181818;stroke-width:1.0;" x1="201" x2="201" y1="705.9297" y2="725.9297"/><polygon fill="#181818" points="197,715.9297,201,725.9297,205,715.9297,201,719.9297" style="stroke:#181818;stroke-width:1.0;"/><line style="stroke:#181818;stroke-width:1.0;" x1="170" x2="170" y1="449.8828" y2="484.8828"/><polygon fill="#181818" points="166,474.8828,170,484.8828,174,474.8828,170,478.8828" style="stroke:#181818;stroke-width:1.0;"/><line style="stroke:#181818;stroke-width:1.0;" x1="396" x2="396" y1="573.4609" y2="609.4609"/><line style="stroke:#181818;stroke-width:1.0;" x1="396" x2="443" y1="609.4609" y2="609.4609"/><polygon fill="#181818" points="439,595.0586,443,585.0586,447,595.0586,443,591.0586" style="stroke:#181818;stroke-width:1.0;"/><line style="stroke:#181818;stroke-width:1.0;" x1="443" x2="443" y1="560.6563" y2="609.4609"/><line style="stroke:#181818;stroke-width:1.0;" x1="443" x2="431" y1="560.6563" y2="560.6563"/><polygon fill="#181818" points="441,556.6563,431,560.6563,441,564.6563,437,560.6563" style="stroke:#181818;stroke-width:1.0;"/><line style="stroke:#181818;stroke-width:1.0;" x1="361" x2="349" y1="560.6563" y2="560.6563"/><polygon fill="#181818" points="345,581.0586,349,591.0586,353,581.0586,349,585.0586" style="stroke:#181818;stroke-width:1.0;"/><line style="stroke:#181818;stroke-width:1.0;" x1="349" x2="349" y1="560.6563" y2="621.4609"/><line style="stroke:#181818;stroke-width:1.0;" x1="349" x2="396" y1="621.4609" y2="621.4609"/><line style="stroke:#181818;stroke-width:1.0;" x1="396" x2="396" y1="621.4609" y2="843.8164"/><polygon fill="#181818" points="392,833.8164,396,843.8164,400,833.8164,396,837.8164" style="stroke:#181818;stroke-width:1.0;"/><line style="stroke:#181818;stroke-width:1.0;" x1="396" x2="396" y1="512.8516" y2="547.8516"/><polygon fill="#181818" points="392,537.8516,396,547.8516,400,537.8516,396,541.8516" style="stroke:#181818;stroke-width:1.0;"/><line style="stroke:#181818;stroke-width:1.0;" x1="573.5" x2="573.5" y1="288.625" y2="307.125"/><polygon fill="#181818" points="569.5,297.125,573.5,307.125,577.5,297.125,573.5,301.125" style="stroke:#181818;stroke-width:1.0;"/><line style="stroke:#181818;stroke-width:1.0;" x1="635" x2="635" y1="288.625" y2="307.125"/><polygon fill="#181818" points="631,297.125,635,307.125,639,297.125,635,301.125" style="stroke:#181818;stroke-width:1.0;"/><line style="stroke:#181818;stroke-width:1.0;" x1="681" x2="681" y1="288.625" y2="361.0938"/><polygon fill="#181818" points="677,351.0938,681,361.0938,685,351.0938,681,355.0938" style="stroke:#181818;stroke-width:1.0;"/><line style="stroke:#181818;stroke-width:1.0;" x1="573.5" x2="573.5" y1="341.0938" y2="361.0938"/><polygon fill="#181818" points="569.5,351.0938,573.5,361.0938,577.5,351.0938,573.5,355.0938" style="stroke:#181818;stroke-width:1.0;"/><line style="stroke:#181818;stroke-width:1.0;" x1="635" x2="635" y1="341.0938" y2="361.0938"/><polygon fill="#181818" points="631,351.0938,635,361.0938,639,351.0938,635,355.0938" style="stroke:#181818;stroke-width:1.0;"/><line style="stroke:#181818;stroke-width:1.0;" x1="642.5" x2="642.5" y1="547.6406" y2="583.6406"/><line style="stroke:#181818;stroke-width:1.0;" x1="642.5" x2="689.5" y1="583.6406" y2="583.6406"/><polygon fill="#181818" points="685.5,569.2383,689.5,559.2383,693.5,569.2383,689.5,565.2383" style="stroke:#181818;stroke-width:1.0;"/><line style="stroke:#181818;stroke-width:1.0;" x1="689.5" x2="689.5" y1="534.8359" y2="583.6406"/><line style="stroke:#181818;stroke-width:1.0;" x1="689.5" x2="677.5" y1="534.8359" y2="534.8359"/><polygon fill="#181818" points="687.5,530.8359,677.5,534.8359,687.5,538.8359,683.5,534.8359" style="stroke:#181818;stroke-width:1.0;"/><line style="stroke:#181818;stroke-width:1.0;" x1="607.5" x2="595.5" y1="534.8359" y2="534.8359"/><polygon fill="#181818" points="591.5,555.2383,595.5,565.2383,599.5,555.2383,595.5,559.2383" style="stroke:#181818;stroke-width:1.0;"/><line style="stroke:#181818;stroke-width:1.0;" x1="595.5" x2="595.5" y1="534.8359" y2="595.6406"/><line style="stroke:#181818;stroke-width:1.0;" x1="595.5" x2="642.5" y1="595.6406" y2="595.6406"/><line style="stroke:#181818;stroke-width:1.0;" x1="642.5" x2="642.5" y1="595.6406" y2="615.6406"/><polygon fill="#181818" points="638.5,605.6406,642.5,615.6406,646.5,605.6406,642.5,609.6406" style="stroke:#181818;stroke-width:1.0;"/><line style="stroke:#181818;stroke-width:1.0;" x1="642.5" x2="642.5" y1="502.0313" y2="522.0313"/><polygon fill="#181818" points="638.5,512.0313,642.5,522.0313,646.5,512.0313,642.5,516.0313" style="stroke:#181818;stroke-width:1.0;"/><line style="stroke:#181818;stroke-width:1.0;" x1="707.5" x2="707.5" y1="502.0313" y2="615.6406"/><polygon fill="#181818" points="703.5,605.6406,707.5,615.6406,711.5,605.6406,707.5,609.6406" style="stroke:#181818;stroke-width:1.0;"/><line style="stroke:#181818;stroke-width:1.0;" x1="650.5" x2="650.5" y1="465.5313" y2="500.5313"/><polygon fill="#181818" points="646.5,490.5313,650.5,500.5313,654.5,490.5313,650.5,494.5313" style="stroke:#181818;stroke-width:1.0;"/><line style="stroke:#181818;stroke-width:1.0;" x1="531" x2="531" y1="397.5938" y2="500.3828"/><polygon fill="#181818" points="527,490.3828,531,500.3828,535,490.3828,531,494.3828" style="stroke:#181818;stroke-width:1.0;"/><line style="stroke:#181818;stroke-width:1.0;" x1="650.5" x2="650.5" y1="397.5938" y2="417.5938"/><polygon fill="#181818" points="646.5,407.5938,650.5,417.5938,654.5,407.5938,650.5,411.5938" style="stroke:#181818;stroke-width:1.0;"/><line style="stroke:#181818;stroke-width:1.0;" x1="531" x2="531" y1="534.3516" y2="637.1406"/><polygon fill="#181818" points="527,627.1406,531,637.1406,535,627.1406,531,631.1406" style="stroke:#181818;stroke-width:1.0;"/><line style="stroke:#181818;stroke-width:1.0;" x1="650.5" x2="650.5" y1="617.1406" y2="637.1406"/><polygon fill="#181818" points="646.5,627.1406,650.5,637.1406,654.5,627.1406,650.5,631.1406" style="stroke:#181818;stroke-width:1.0;"/><line style="stroke:#181818;stroke-width:1.0;" x1="619.5" x2="619.5" y1="362.5938" y2="396.0938"/><polygon fill="#181818" points="615.5,386.0938,619.5,396.0938,623.5,386.0938,619.5,390.0938" style="stroke:#181818;stroke-width:1.0;"/><line style="stroke:#181818;stroke-width:1.0;" x1="619.5" x2="619.5" y1="638.6406" y2="673.6406"/><polygon fill="#181818" points="615.5,663.6406,619.5,673.6406,623.5,663.6406,619.5,667.6406" style="stroke:#181818;stroke-width:1.0;"/><line style="stroke:#181818;stroke-width:1.0;" x1="619.5" x2="619.5" y1="768.2188" y2="799.8164"/><line style="stroke:#181818;stroke-width:1.0;" x1="619.5" x2="666.5" y1="799.8164" y2="799.8164"/><polygon fill="#181818" points="662.5,789.8164,666.5,779.8164,670.5,789.8164,666.5,785.8164" style="stroke:#181818;stroke-width:1.0;"/><line style="stroke:#181818;stroke-width:1.0;" x1="666.5" x2="666.5" y1="755.4141" y2="799.8164"/><line style="stroke:#181818;stroke-width:1.0;" x1="666.5" x2="654.5" y1="755.4141" y2="755.4141"/><polygon fill="#181818" points="664.5,751.4141,654.5,755.4141,664.5,759.4141,660.5,755.4141" style="stroke:#181818;stroke-width:1.0;"/><line style="stroke:#181818;stroke-width:1.0;" x1="584.5" x2="572.5" y1="755.4141" y2="755.4141"/><polygon fill="#181818" points="568.5,775.8164,572.5,785.8164,576.5,775.8164,572.5,779.8164" style="stroke:#181818;stroke-width:1.0;"/><line style="stroke:#181818;stroke-width:1.0;" x1="572.5" x2="572.5" y1="755.4141" y2="811.8164"/><line style="stroke:#181818;stroke-width:1.0;" x1="572.5" x2="619.5" y1="811.8164" y2="811.8164"/><line style="stroke:#181818;stroke-width:1.0;" x1="619.5" x2="619.5" y1="811.8164" y2="843.8164"/><polygon fill="#181818" points="615.5,833.8164,619.5,843.8164,623.5,833.8164,619.5,837.8164" style="stroke:#181818;stroke-width:1.0;"/><line style="stroke:#181818;stroke-width:1.0;" x1="619.5" x2="619.5" y1="707.6094" y2="742.6094"/><polygon fill="#181818" points="615.5,732.6094,619.5,742.6094,623.5,732.6094,619.5,736.6094" style="stroke:#181818;stroke-width:1.0;"/><line style="stroke:#181818;stroke-width:1.0;" x1="170" x2="170" y1="242.3281" y2="374.4141"/><polygon fill="#181818" points="166,364.4141,170,374.4141,174,364.4141,170,368.4141" style="stroke:#181818;stroke-width:1.0;"/><line style="stroke:#181818;stroke-width:1.0;" x1="396" x2="396" y1="242.3281" y2="478.8828"/><polygon fill="#181818" points="392,468.8828,396,478.8828,400,468.8828,396,472.8828" style="stroke:#181818;stroke-width:1.0;"/><line style="stroke:#181818;stroke-width:1.0;" x1="619.5" x2="619.5" y1="242.3281" y2="287.125"/><polygon fill="#181818" points="615.5,277.125,619.5,287.125,623.5,277.125,619.5,281.125" style="stroke:#181818;stroke-width:1.0;"/><line style="stroke:#181818;stroke-width:1.0;" x1="170" x2="170" y1="727.4297" y2="843.8164"/><polygon fill="#181818" points="166,833.8164,170,843.8164,174,833.8164,170,837.8164" style="stroke:#181818;stroke-width:1.0;"/><line style="stroke:#181818;stroke-width:1.0;" x1="350" x2="350" y1="920.8242" y2="939.3242"/><polygon fill="#181818" points="346,929.3242,350,939.3242,354,929.3242,350,933.3242" style="stroke:#181818;stroke-width:1.0;"/><line style="stroke:#181818;stroke-width:1.0;" x1="411.5" x2="411.5" y1="920.8242" y2="939.3242"/><polygon fill="#181818" points="407.5,929.3242,411.5,939.3242,415.5,929.3242,411.5,933.3242" style="stroke:#181818;stroke-width:1.0;"/><line style="stroke:#181818;stroke-width:1.0;" x1="350" x2="350" y1="973.293" y2="993.293"/><polygon fill="#181818" points="346,983.293,350,993.293,354,983.293,350,987.293" style="stroke:#181818;stroke-width:1.0;"/><line style="stroke:#181818;stroke-width:1.0;" x1="411.5" x2="411.5" y1="973.293" y2="993.293"/><polygon fill="#181818" points="407.5,983.293,411.5,993.293,415.5,983.293,411.5,987.293" style="stroke:#181818;stroke-width:1.0;"/><line style="stroke:#181818;stroke-width:1.0;" x1="334.5" x2="334.5" y1="1014.793" y2="1033.293"/><polygon fill="#181818" points="330.5,1023.293,334.5,1033.293,338.5,1023.293,334.5,1027.293" style="stroke:#181818;stroke-width:1.0;"/><line style="stroke:#181818;stroke-width:1.0;" x1="396" x2="396" y1="1014.793" y2="1033.293"/><polygon fill="#181818" points="392,1023.293,396,1033.293,400,1023.293,396,1027.293" style="stroke:#181818;stroke-width:1.0;"/><line style="stroke:#181818;stroke-width:1.0;" x1="442" x2="442" y1="1014.793" y2="1087.2617"/><polygon fill="#181818" points="438,1077.2617,442,1087.2617,446,1077.2617,442,1081.2617" style="stroke:#181818;stroke-width:1.0;"/><line style="stroke:#181818;stroke-width:1.0;" x1="334.5" x2="334.5" y1="1067.2617" y2="1087.2617"/><polygon fill="#181818" points="330.5,1077.2617,334.5,1087.2617,338.5,1077.2617,334.5,1081.2617" style="stroke:#181818;stroke-width:1.0;"/><line style="stroke:#181818;stroke-width:1.0;" x1="396" x2="396" y1="1067.2617" y2="1087.2617"/><polygon fill="#181818" points="392,1077.2617,396,1087.2617,400,1077.2617,396,1081.2617" style="stroke:#181818;stroke-width:1.0;"/><line style="stroke:#181818;stroke-width:1.0;" x1="380.5" x2="380.5" y1="994.793" y2="1013.293"/><polygon fill="#181818" points="376.5,1003.293,380.5,1013.293,384.5,1003.293,380.5,1007.293" style="stroke:#181818;stroke-width:1.0;"/><line style="stroke:#181818;stroke-width:1.0;" x1="380.5" x2="380.5" y1="1132.8711" y2="1164.4688"/><line style="stroke:#181818;stroke-width:1.0;" x1="380.5" x2="427.5" y1="1164.4688" y2="1164.4688"/><polygon fill="#181818" points="423.5,1154.4688,427.5,1144.4688,431.5,1154.4688,427.5,1150.4688" style="stroke:#181818;stroke-width:1.0;"/><line style="stroke:#181818;stroke-width:1.0;" x1="427.5" x2="427.5" y1="1120.0664" y2="1164.4688"/><line style="stroke:#181818;stroke-width:1.0;" x1="427.5" x2="415.5" y1="1120.0664" y2="1120.0664"/><polygon fill="#181818" points="425.5,1116.0664,415.5,1120.0664,425.5,1124.0664,421.5,1120.0664" style="stroke:#181818;stroke-width:1.0;"/><line style="stroke:#181818;stroke-width:1.0;" x1="345.5" x2="333.5" y1="1120.0664" y2="1120.0664"/><polygon fill="#181818" points="329.5,1140.4688,333.5,1150.4688,337.5,1140.4688,333.5,1144.4688" style="stroke:#181818;stroke-width:1.0;"/><line style="stroke:#181818;stroke-width:1.0;" x1="333.5" x2="333.5" y1="1120.0664" y2="1176.4688"/><line style="stroke:#181818;stroke-width:1.0;" x1="333.5" x2="380.5" y1="1176.4688" y2="1176.4688"/><line style="stroke:#181818;stroke-width:1.0;" x1="380.5" x2="380.5" y1="1176.4688" y2="1208.4688"/><polygon fill="#181818" points="376.5,1198.4688,380.5,1208.4688,384.5,1198.4688,380.5,1202.4688" style="stroke:#181818;stroke-width:1.0;"/><line style="stroke:#181818;stroke-width:1.0;" x1="380.5" x2="380.5" y1="1088.7617" y2="1107.2617"/><polygon fill="#181818" points="376.5,1097.2617,380.5,1107.2617,384.5,1097.2617,380.5,1101.2617" style="stroke:#181818;stroke-width:1.0;"/><line style="stroke:#181818;stroke-width:1.0;" x1="380.5" x2="380.5" y1="874.5273" y2="919.3242"/><polygon fill="#181818" points="376.5,909.3242,380.5,919.3242,384.5,909.3242,380.5,913.3242" style="stroke:#181818;stroke-width:1.0;"/><line style="stroke:#181818;stroke-width:1.0;" x1="494" x2="494" y1="874.5273" y2="1208.4688"/><polygon fill="#181818" points="490,1198.4688,494,1208.4688,498,1198.4688,494,1202.4688" style="stroke:#181818;stroke-width:1.0;"/><line style="stroke:#181818;stroke-width:1.0;" x1="394.5" x2="394.5" y1="845.3164" y2="873.0273"/><polygon fill="#181818" points="390.5,863.0273,394.5,873.0273,398.5,863.0273,394.5,867.0273" style="stroke:#181818;stroke-width:1.0;"/><line style="stroke:#181818;stroke-width:1.0;" x1="291.5" x2="291.5" y1="1276.2656" y2="1294.7656"/><polygon fill="#181818" points="287.5,1284.7656,291.5,1294.7656,295.5,1284.7656,291.5,1288.7656" style="stroke:#181818;stroke-width:1.0;"/><line style="stroke:#181818;stroke-width:1.0;" x1="351" x2="351" y1="1276.2656" y2="1294.7656"/><polygon fill="#181818" points="347,1284.7656,351,1294.7656,355,1284.7656,351,1288.7656" style="stroke:#181818;stroke-width:1.0;"/><line style="stroke:#181818;stroke-width:1.0;" x1="410" x2="410" y1="1276.2656" y2="1294.7656"/><polygon fill="#181818" points="406,1284.7656,410,1294.7656,414,1284.7656,410,1288.7656" style="stroke:#181818;stroke-width:1.0;"/><line style="stroke:#181818;stroke-width:1.0;" x1="468.5" x2="468.5" y1="1276.2656" y2="1294.7656"/><polygon fill="#181818" points="464.5,1284.7656,468.5,1294.7656,472.5,1284.7656,468.5,1288.7656" style="stroke:#181818;stroke-width:1.0;"/><line style="stroke:#181818;stroke-width:1.0;" x1="291.5" x2="291.5" y1="1328.7344" y2="1348.7344"/><polygon fill="#181818" points="287.5,1338.7344,291.5,1348.7344,295.5,1338.7344,291.5,1342.7344" style="stroke:#181818;stroke-width:1.0;"/><line style="stroke:#181818;stroke-width:1.0;" x1="351" x2="351" y1="1328.7344" y2="1348.7344"/><polygon fill="#181818" points="347,1338.7344,351,1348.7344,355,1338.7344,351,1342.7344" style="stroke:#181818;stroke-width:1.0;"/><line style="stroke:#181818;stroke-width:1.0;" x1="410" x2="410" y1="1328.7344" y2="1348.7344"/><polygon fill="#181818" points="406,1338.7344,410,1348.7344,414,1338.7344,410,1342.7344" style="stroke:#181818;stroke-width:1.0;"/><line style="stroke:#181818;stroke-width:1.0;" x1="468.5" x2="468.5" y1="1328.7344" y2="1348.7344"/><polygon fill="#181818" points="464.5,1338.7344,468.5,1348.7344,472.5,1338.7344,468.5,1342.7344" style="stroke:#181818;stroke-width:1.0;"/><line style="stroke:#181818;stroke-width:1.0;" x1="380.5" x2="380.5" y1="1229.9688" y2="1274.7656"/><polygon fill="#181818" points="376.5,1264.7656,380.5,1274.7656,384.5,1264.7656,380.5,1268.7656" style="stroke:#181818;stroke-width:1.0;"/><line style="stroke:#181818;stroke-width:1.0;" x1="536.5" x2="536.5" y1="1229.9688" y2="1380.7344"/><polygon fill="#181818" points="532.5,1370.7344,536.5,1380.7344,540.5,1370.7344,536.5,1374.7344" style="stroke:#181818;stroke-width:1.0;"/><line style="stroke:#181818;stroke-width:1.0;" x1="380.5" x2="380.5" y1="1350.2344" y2="1380.7344"/><polygon fill="#181818" points="376.5,1370.7344,380.5,1380.7344,384.5,1370.7344,380.5,1374.7344" style="stroke:#181818;stroke-width:1.0;"/><line style="stroke:#181818;stroke-width:1.0;" x1="394.5" x2="394.5" y1="1209.9688" y2="1228.4688"/><polygon fill="#181818" points="390.5,1218.4688,394.5,1228.4688,398.5,1218.4688,394.5,1222.4688" style="stroke:#181818;stroke-width:1.0;"/><line style="stroke:#181818;stroke-width:1.0;" x1="394.5" x2="394.5" y1="194.5313" y2="240.8281"/><polygon fill="#181818" points="390.5,230.8281,394.5,240.8281,398.5,230.8281,394.5,234.8281" style="stroke:#181818;stroke-width:1.0;"/><line style="stroke:#181818;stroke-width:1.0;" x1="437.5" x2="747.5" y1="1424.7344" y2="1424.7344"/><polygon fill="#181818" points="743.5,853.0273,747.5,843.0273,751.5,853.0273,747.5,849.0273" style="stroke:#181818;stroke-width:1.0;"/><line style="stroke:#181818;stroke-width:1.0;" x1="747.5" x2="747.5" y1="182.5313" y2="1424.7344"/><line style="stroke:#181818;stroke-width:1.0;" x1="747.5" x2="406.5" y1="182.5313" y2="182.5313"/><polygon fill="#181818" points="416.5,178.5313,406.5,182.5313,416.5,186.5313,412.5,182.5313" style="stroke:#181818;stroke-width:1.0;"/><line style="stroke:#181818;stroke-width:1.0;" x1="394.5" x2="394.5" y1="1382.2344" y2="1412.7344"/><polygon fill="#181818" points="390.5,1402.7344,394.5,1412.7344,398.5,1402.7344,394.5,1406.7344" style="stroke:#181818;stroke-width:1.0;"/><line style="stroke:#181818;stroke-width:1.0;" x1="394.5" x2="394.5" y1="124.2344" y2="170.5313"/><polygon fill="#181818" points="390.5,160.5313,394.5,170.5313,398.5,160.5313,394.5,164.5313" style="stroke:#181818;stroke-width:1.0;"/><line style="stroke:#181818;stroke-width:1.0;" x1="394.5" x2="394.5" y1="1436.7344" y2="1487.9448"/><polygon fill="#181818" points="390.5,1477.9448,394.5,1487.9448,398.5,1477.9448,394.5,1481.9448" style="stroke:#181818;stroke-width:1.0;"/><text fill="#000000" font-family="sans-serif" font-size="11" lengthAdjust="spacing" textLength="13" x="398.5" y="1466.4448">'}'</text><line style="stroke:#181818;stroke-width:1.0;" x1="394.5" x2="394.5" y1="30" y2="76.2969"/><polygon fill="#181818" points="390.5,66.2969,394.5,76.2969,398.5,66.2969,394.5,70.2969" style="stroke:#181818;stroke-width:1.0;"/><line style="stroke:#181818;stroke-width:1.0;" x1="394.5" x2="394.5" y1="1535.8823" y2="1567.8823"/><polygon fill="#181818" points="390.5,1557.8823,394.5,1567.8823,398.5,1557.8823,394.5,1561.8823" style="stroke:#181818;stroke-width:1.0;"/><!--MD5=[cb8844211be656cd2fe4d63ca62b8732]
@startuml
start

partition Array {
	:==**Positive Lookbehind**==
                 `{`;
		partition ArrayElement {
			repeat
                partition Number {
                    split
                        partition Integer {
                            split
                                :'-';
                            split again
                                :'+';
                            split again
                            end split

                            split
                                :'0';
                            split again
                                :==**One of**==\n '1' - '9';
                                split
                                    while (==**One of**==\n '0' - '9')
                                    endwhile
                                split again
                                end split
                            end split
                        }
                        
                    split again
                        partition Partition {
                            :'.';
                            while (==**One of**==\n '0' - '9')
                            endwhile
                        }
                            
                    split again
                        partition Float {
                            split
                                :'-';
                            split again
                                :'+';
                            split again
                            end split

                            split
                                :'0';
                            split again
                                :==**One of**==\n '1' - '9';
                                split
                                    while (==**One of**==\n '0' - '9')
                                    endwhile
                                split again
                                end split
                            end split

                            :'.';
                            while (==**One of**==\n '0' - '9')
                            endwhile
                        }
                            
                    end split

                    split
                        partition Exponent {
                            split
                                :'e';
                            split again
                                :'E';
                            end split

                            split
                                :'-';
                            split again
                                :'+';
                            split again
                            end split

                            while (==**One of**==\n '0' - '9')
                            endwhile
                        }
                    split again
                    end split

                    split
                        partition Suffix {
                            split
                                :'f';
                            split again
                                :'F';
                            split again
                                :'l';
                            split again
                                :'L';
                            end split
                        }
                    split again
                    end split
                }
			repeat while (Lookahead) is (';')
			->'}';
		}
	:==**Positive Lookahead**==
                `}`;

}

stop
@enduml

PlantUML version 1.2022.2(Sat Mar 05 16:30:19 UTC 2022)
(GPL source distribution)
Java Runtime: Java(TM) SE Runtime Environment
JVM: Java HotSpot(TM) 64-Bit Server VM
Default Encoding: UTF-8
Language: en
Country: US
--></g></svg>