<?xml version="1.0" encoding="UTF-8" standalone="no"?>
<svg xmlns="http://www.w3.org/2000/svg" xmlns:xlink="http://www.w3.org/1999/xlink" contentStyleType="text/css" height="769px" preserveAspectRatio="none" style="width:433px;height:769px;background:#FFFFFF;" version="1.1" viewBox="0 0 433 769" width="433px" zoomAndPan="magnify"><defs/><g><ellipse cx="203" cy="20" fill="#222222" rx="10" ry="10" style="stroke:#222222;stroke-width:1.0;"/><rect fill="none" height="676.4292" style="stroke:#000000;stroke-width:1.5;" width="411.5" x="11" y="40"/><path d="M59,40 L59,49.2969 L49,59.2969 L11,59.2969 " fill="none" style="stroke:#000000;stroke-width:1.5;"/><text fill="#000000" font-family="sans-serif" font-size="14" lengthAdjust="spacing" textLength="38" x="14" y="53.9951">Array</text><rect fill="#F1F1F1" height="47.9375" rx="12.5" ry="12.5" style="stroke:#181818;stroke-width:0.5;" width="165" x="120.5" y="76.2969"/><line style="stroke:#181818;stroke-width:1.0;" x1="120.5" x2="130.5" y1="93.2813" y2="93.2813"/><line style="stroke:#181818;stroke-width:1.0;" x1="120.5" x2="130.5" y1="95.2813" y2="95.2813"/><text fill="#000000" font-family="sans-serif" font-size="12" font-weight="bold" lengthAdjust="spacing" textLength="145" x="130.5" y="96.9355">Positive Lookbehind</text><line style="stroke:#181818;stroke-width:1.0;" x1="275.5" x2="285.5" y1="93.2813" y2="93.2813"/><line style="stroke:#181818;stroke-width:1.0;" x1="275.5" x2="285.5" y1="95.2813" y2="95.2813"/><text fill="#000000" font-family="sans-serif" font-size="12" lengthAdjust="spacing" textLength="19" x="194.5" y="111.4043">`{`</text><rect fill="none" height="483.0469" style="stroke:#000000;stroke-width:1.5;" width="391.5" x="21" y="134.2344"/><path d="M130,134.2344 L130,143.5313 L120,153.5313 L21,153.5313 " fill="none" style="stroke:#000000;stroke-width:1.5;"/><text fill="#000000" font-family="sans-serif" font-size="14" lengthAdjust="spacing" textLength="99" x="24" y="148.2295">ArrayElement</text><rect fill="none" height="356.75" style="stroke:#000000;stroke-width:1.5;" width="353.5" x="31" y="204.5313"/><path d="M56,204.5313 L56,213.8281 L46,223.8281 L31,223.8281 " fill="none" style="stroke:#000000;stroke-width:1.5;"/><text fill="#000000" font-family="sans-serif" font-size="14" lengthAdjust="spacing" textLength="15" x="34" y="218.5264">ID</text><line style="stroke:#181818;stroke-width:1.5;" x1="120" x2="309.5" y1="240.8281" y2="240.8281"/><rect fill="none" height="278.4531" style="stroke:#000000;stroke-width:1.5;" width="162" x="49" y="250.8281"/><path d="M142,250.8281 L142,260.125 L132,270.125 L49,270.125 " fill="none" style="stroke:#000000;stroke-width:1.5;"/><text fill="#000000" font-family="sans-serif" font-size="14" lengthAdjust="spacing" textLength="83" x="52" y="264.8232">LetterStart</text><rect fill="#F1F1F1" height="61.9063" rx="12.5" ry="12.5" style="stroke:#181818;stroke-width:0.5;" width="69" x="85.5" y="287.125"/><line style="stroke:#181818;stroke-width:1.0;" x1="85.5" x2="95.5" y1="304.1094" y2="304.1094"/><line style="stroke:#181818;stroke-width:1.0;" x1="85.5" x2="95.5" y1="306.1094" y2="306.1094"/><text fill="#000000" font-family="sans-serif" font-size="12" font-weight="bold" lengthAdjust="spacing" textLength="49" x="95.5" y="307.7637">One of</text><line style="stroke:#181818;stroke-width:1.0;" x1="144.5" x2="154.5" y1="304.1094" y2="304.1094"/><line style="stroke:#181818;stroke-width:1.0;" x1="144.5" x2="154.5" y1="306.1094" y2="306.1094"/><text fill="#000000" font-family="sans-serif" font-size="12" lengthAdjust="spacing" textLength="42" x="99.5" y="322.2324">'A' - 'Z'</text><text fill="#000000" font-family="sans-serif" font-size="12" lengthAdjust="spacing" textLength="39" x="99.5" y="336.2012">'a' - 'z'</text><line style="stroke:#181818;stroke-width:1.5;" x1="112" x2="187" y1="376.5625" y2="376.5625"/><polygon fill="#F1F1F1" points="89,398.0625,135,398.0625,147,423.6719,135,449.2813,89,449.2813,77,423.6719,89,398.0625" style="stroke:#181818;stroke-width:0.5;"/><line style="stroke:#181818;stroke-width:1.0;" x1="89" x2="89" y1="404.4648" y2="404.4648"/><line style="stroke:#181818;stroke-width:1.0;" x1="89" x2="89" y1="406.4648" y2="406.4648"/><text fill="#000000" font-family="sans-serif" font-size="11" font-weight="bold" lengthAdjust="spacing" textLength="46" x="89" y="407.7729">One of</text><line style="stroke:#181818;stroke-width:1.0;" x1="135" x2="135" y1="404.4648" y2="404.4648"/><line style="stroke:#181818;stroke-width:1.0;" x1="135" x2="135" y1="406.4648" y2="406.4648"/><text fill="#000000" font-family="sans-serif" font-size="11" lengthAdjust="spacing" textLength="40" x="93" y="421.0776">'A' - 'Z'</text><text fill="#000000" font-family="sans-serif" font-size="11" lengthAdjust="spacing" textLength="38" x="93" y="433.8823">'a' - 'z'</text><text fill="#000000" font-family="sans-serif" font-size="11" lengthAdjust="spacing" textLength="38" x="93" y="446.687">'0' - '9'</text><line style="stroke:#181818;stroke-width:1.5;" x1="112" x2="187" y1="517.2813" y2="517.2813"/><rect fill="none" height="217.0156" style="stroke:#000000;stroke-width:1.5;" width="133.5" x="239" y="286.2969"/><path d="M367,286.2969 L367,295.5938 L357,305.5938 L239,305.5938 " fill="none" style="stroke:#000000;stroke-width:1.5;"/><text fill="#000000" font-family="sans-serif" font-size="14" lengthAdjust="spacing" textLength="118" x="242" y="300.292">UnderscoreStart</text><rect fill="#F1F1F1" height="33.9688" rx="12.5" ry="12.5" style="stroke:#181818;stroke-width:0.5;" width="32" x="293.5" y="322.5938"/><text fill="#000000" font-family="sans-serif" font-size="12" lengthAdjust="spacing" textLength="12" x="303.5" y="343.7324">'_'</text><polygon fill="#F1F1F1" points="286.5,384.0938,332.5,384.0938,344.5,409.7031,332.5,435.3125,286.5,435.3125,274.5,409.7031,286.5,384.0938" style="stroke:#181818;stroke-width:0.5;"/><line style="stroke:#181818;stroke-width:1.0;" x1="286.5" x2="286.5" y1="390.4961" y2="390.4961"/><line style="stroke:#181818;stroke-width:1.0;" x1="286.5" x2="286.5" y1="392.4961" y2="392.4961"/><text fill="#000000" font-family="sans-serif" font-size="11" font-weight="bold" lengthAdjust="spacing" textLength="46" x="286.5" y="393.8042">One of</text><line style="stroke:#181818;stroke-width:1.0;" x1="332.5" x2="332.5" y1="390.4961" y2="390.4961"/><line style="stroke:#181818;stroke-width:1.0;" x1="332.5" x2="332.5" y1="392.4961" y2="392.4961"/><text fill="#000000" font-family="sans-serif" font-size="11" lengthAdjust="spacing" textLength="40" x="290.5" y="407.1089">'A' - 'Z'</text><text fill="#000000" font-family="sans-serif" font-size="11" lengthAdjust="spacing" textLength="38" x="290.5" y="419.9136">'a' - 'z'</text><text fill="#000000" font-family="sans-serif" font-size="11" lengthAdjust="spacing" textLength="38" x="290.5" y="432.7183">'0' - '9'</text><line style="stroke:#181818;stroke-width:1.5;" x1="120" x2="309.5" y1="549.2813" y2="549.2813"/><polygon fill="#F1F1F1" points="203,170.5313,215,182.5313,203,194.5313,191,182.5313,203,170.5313" style="stroke:#181818;stroke-width:0.5;"/><polygon fill="#F1F1F1" points="172,581.2813,234,581.2813,246,593.2813,234,605.2813,172,605.2813,160,593.2813,172,581.2813" style="stroke:#181818;stroke-width:0.5;"/><text fill="#000000" font-family="sans-serif" font-size="11" lengthAdjust="spacing" textLength="62" x="172" y="597.0894">Lookahead</text><text fill="#000000" font-family="sans-serif" font-size="11" lengthAdjust="spacing" textLength="9" x="246" y="590.687">';'</text><rect fill="#F1F1F1" height="47.9375" rx="12.5" ry="12.5" style="stroke:#181818;stroke-width:0.5;" width="161" x="122.5" y="656.4917"/><line style="stroke:#181818;stroke-width:1.0;" x1="122.5" x2="132.5" y1="673.4761" y2="673.4761"/><line style="stroke:#181818;stroke-width:1.0;" x1="122.5" x2="132.5" y1="675.4761" y2="675.4761"/><text fill="#000000" font-family="sans-serif" font-size="12" font-weight="bold" lengthAdjust="spacing" textLength="141" x="132.5" y="677.1304">Positive Lookahead</text><line style="stroke:#181818;stroke-width:1.0;" x1="273.5" x2="283.5" y1="673.4761" y2="673.4761"/><line style="stroke:#181818;stroke-width:1.0;" x1="273.5" x2="283.5" y1="675.4761" y2="675.4761"/><text fill="#000000" font-family="sans-serif" font-size="12" lengthAdjust="spacing" textLength="19" x="192.5" y="691.5991">`}`</text><ellipse cx="203" cy="747.4292" rx="11" ry="11" style="stroke:#222222;stroke-width:1.0;fill:none;"/><ellipse cx="203" cy="747.4292" fill="#222222" rx="6" ry="6" style="stroke:#111111;stroke-width:1.0;"/><line style="stroke:#181818;stroke-width:1.0;" x1="112" x2="112" y1="449.2813" y2="485.2813"/><line style="stroke:#181818;stroke-width:1.0;" x1="112" x2="159" y1="485.2813" y2="485.2813"/><polygon fill="#181818" points="155,464.4766,159,454.4766,163,464.4766,159,460.4766" style="stroke:#181818;stroke-width:1.0;"/><line style="stroke:#181818;stroke-width:1.0;" x1="159" x2="159" y1="423.6719" y2="485.2813"/><line style="stroke:#181818;stroke-width:1.0;" x1="159" x2="147" y1="423.6719" y2="423.6719"/><polygon fill="#181818" points="157,419.6719,147,423.6719,157,427.6719,153,423.6719" style="stroke:#181818;stroke-width:1.0;"/><line style="stroke:#181818;stroke-width:1.0;" x1="77" x2="65" y1="423.6719" y2="423.6719"/><polygon fill="#181818" points="61,450.4766,65,460.4766,69,450.4766,65,454.4766" style="stroke:#181818;stroke-width:1.0;"/><line style="stroke:#181818;stroke-width:1.0;" x1="65" x2="65" y1="423.6719" y2="497.2813"/><line style="stroke:#181818;stroke-width:1.0;" x1="65" x2="112" y1="497.2813" y2="497.2813"/><line style="stroke:#181818;stroke-width:1.0;" x1="112" x2="112" y1="497.2813" y2="517.2813"/><polygon fill="#181818" points="108,507.2813,112,517.2813,116,507.2813,112,511.2813" style="stroke:#181818;stroke-width:1.0;"/><line style="stroke:#181818;stroke-width:1.0;" x1="112" x2="112" y1="378.0625" y2="398.0625"/><polygon fill="#181818" points="108,388.0625,112,398.0625,116,388.0625,112,392.0625" style="stroke:#181818;stroke-width:1.0;"/><line style="stroke:#181818;stroke-width:1.0;" x1="187" x2="187" y1="378.0625" y2="517.2813"/><polygon fill="#181818" points="183,507.2813,187,517.2813,191,507.2813,187,511.2813" style="stroke:#181818;stroke-width:1.0;"/><line style="stroke:#181818;stroke-width:1.0;" x1="120" x2="120" y1="349.0313" y2="376.5625"/><polygon fill="#181818" points="116,366.5625,120,376.5625,124,366.5625,120,370.5625" style="stroke:#181818;stroke-width:1.0;"/><line style="stroke:#181818;stroke-width:1.0;" x1="309.5" x2="309.5" y1="435.3125" y2="471.3125"/><line style="stroke:#181818;stroke-width:1.0;" x1="309.5" x2="356.5" y1="471.3125" y2="471.3125"/><polygon fill="#181818" points="352.5,450.5078,356.5,440.5078,360.5,450.5078,356.5,446.5078" style="stroke:#181818;stroke-width:1.0;"/><line style="stroke:#181818;stroke-width:1.0;" x1="356.5" x2="356.5" y1="409.7031" y2="471.3125"/><line style="stroke:#181818;stroke-width:1.0;" x1="356.5" x2="344.5" y1="409.7031" y2="409.7031"/><polygon fill="#181818" points="354.5,405.7031,344.5,409.7031,354.5,413.7031,350.5,409.7031" style="stroke:#181818;stroke-width:1.0;"/><line style="stroke:#181818;stroke-width:1.0;" x1="274.5" x2="262.5" y1="409.7031" y2="409.7031"/><polygon fill="#181818" points="258.5,436.5078,262.5,446.5078,266.5,436.5078,262.5,440.5078" style="stroke:#181818;stroke-width:1.0;"/><line style="stroke:#181818;stroke-width:1.0;" x1="262.5" x2="262.5" y1="409.7031" y2="483.3125"/><line style="stroke:#181818;stroke-width:1.0;" x1="262.5" x2="309.5" y1="483.3125" y2="483.3125"/><line style="stroke:#181818;stroke-width:1.0;" x1="309.5" x2="309.5" y1="483.3125" y2="549.2813"/><polygon fill="#181818" points="305.5,539.2813,309.5,549.2813,313.5,539.2813,309.5,543.2813" style="stroke:#181818;stroke-width:1.0;"/><line style="stroke:#181818;stroke-width:1.0;" x1="309.5" x2="309.5" y1="356.5625" y2="384.0938"/><polygon fill="#181818" points="305.5,374.0938,309.5,384.0938,313.5,374.0938,309.5,378.0938" style="stroke:#181818;stroke-width:1.0;"/><line style="stroke:#181818;stroke-width:1.0;" x1="120" x2="120" y1="242.3281" y2="287.125"/><polygon fill="#181818" points="116,277.125,120,287.125,124,277.125,120,281.125" style="stroke:#181818;stroke-width:1.0;"/><line style="stroke:#181818;stroke-width:1.0;" x1="309.5" x2="309.5" y1="242.3281" y2="322.5938"/><polygon fill="#181818" points="305.5,312.5938,309.5,322.5938,313.5,312.5938,309.5,316.5938" style="stroke:#181818;stroke-width:1.0;"/><line style="stroke:#181818;stroke-width:1.0;" x1="120" x2="120" y1="518.7813" y2="549.2813"/><polygon fill="#181818" points="116,539.2813,120,549.2813,124,539.2813,120,543.2813" style="stroke:#181818;stroke-width:1.0;"/><line style="stroke:#181818;stroke-width:1.0;" x1="203" x2="203" y1="194.5313" y2="240.8281"/><polygon fill="#181818" points="199,230.8281,203,240.8281,207,230.8281,203,234.8281" style="stroke:#181818;stroke-width:1.0;"/><line style="stroke:#181818;stroke-width:1.0;" x1="246" x2="396.5" y1="593.2813" y2="593.2813"/><polygon fill="#181818" points="392.5,392.9219,396.5,382.9219,400.5,392.9219,396.5,388.9219" style="stroke:#181818;stroke-width:1.0;"/><line style="stroke:#181818;stroke-width:1.0;" x1="396.5" x2="396.5" y1="182.5313" y2="593.2813"/><line style="stroke:#181818;stroke-width:1.0;" x1="396.5" x2="215" y1="182.5313" y2="182.5313"/><polygon fill="#181818" points="225,178.5313,215,182.5313,225,186.5313,221,182.5313" style="stroke:#181818;stroke-width:1.0;"/><line style="stroke:#181818;stroke-width:1.0;" x1="203" x2="203" y1="550.7813" y2="581.2813"/><polygon fill="#181818" points="199,571.2813,203,581.2813,207,571.2813,203,575.2813" style="stroke:#181818;stroke-width:1.0;"/><line style="stroke:#181818;stroke-width:1.0;" x1="203" x2="203" y1="124.2344" y2="170.5313"/><polygon fill="#181818" points="199,160.5313,203,170.5313,207,160.5313,203,164.5313" style="stroke:#181818;stroke-width:1.0;"/><line style="stroke:#181818;stroke-width:1.0;" x1="203" x2="203" y1="605.2813" y2="656.4917"/><polygon fill="#181818" points="199,646.4917,203,656.4917,207,646.4917,203,650.4917" style="stroke:#181818;stroke-width:1.0;"/><text fill="#000000" font-family="sans-serif" font-size="11" lengthAdjust="spacing" textLength="13" x="207" y="634.9917">'}'</text><line style="stroke:#181818;stroke-width:1.0;" x1="203" x2="203" y1="30" y2="76.2969"/><polygon fill="#181818" points="199,66.2969,203,76.2969,207,66.2969,203,70.2969" style="stroke:#181818;stroke-width:1.0;"/><line style="stroke:#181818;stroke-width:1.0;" x1="203" x2="203" y1="704.4292" y2="736.4292"/><polygon fill="#181818" points="199,726.4292,203,736.4292,207,726.4292,203,730.4292" style="stroke:#181818;stroke-width:1.0;"/><!--MD5=[2bee85b7205545c476d1bab2732305a0]
@startuml
start

partition Array {
	:==**Positive Lookbehind**==
                 `{`;
		partition ArrayElement {
			repeat
                partition ID {
                    split
                        partition LetterStart {
                            :==**One of**==\n 'A' - 'Z'\n 'a' - 'z';
                            split
                                while (==**One of**==\n 'A' - 'Z'\n 'a' - 'z'\n '0' - '9')
                                endwhile
                            split again
                            end split
                        }
                            
                    split again
                        partition UnderscoreStart {
                            :'_';

                            while (==**One of**==\n 'A' - 'Z'\n 'a' - 'z'\n '0' - '9')
                            endwhile
                        }
                            
                    end split
                }
			repeat while (Lookahead) is (';')
			->'}';
		}
	:==**Positive Lookahead**==
                `}`;

}

stop
@enduml

PlantUML version 1.2022.2(Sat Mar 05 16:30:19 UTC 2022)
(GPL source distribution)
Java Runtime: Java(TM) SE Runtime Environment
JVM: Java HotSpot(TM) 64-Bit Server VM
Default Encoding: UTF-8
Language: en
Country: US
--></g></svg>